G04 #@! TF.GenerationSoftware,KiCad,Pcbnew,5.1.5-1.fc30*
G04 #@! TF.CreationDate,2020-02-08T00:59:57+03:00*
G04 #@! TF.ProjectId,Tamagotchi-Atmega8,54616d61-676f-4746-9368-692d41746d65,rev?*
G04 #@! TF.SameCoordinates,Original*
G04 #@! TF.FileFunction,Copper,L2,Bot*
G04 #@! TF.FilePolarity,Positive*
%FSLAX46Y46*%
G04 Gerber Fmt 4.6, Leading zero omitted, Abs format (unit mm)*
G04 Created by KiCad (PCBNEW 5.1.5-1.fc30) date 2020-02-08 00:59:57*
%MOMM*%
%LPD*%
G04 APERTURE LIST*
%ADD10C,0.300000*%
%ADD11R,1.200000X1.200000*%
%ADD12C,1.000000*%
%ADD13O,1.700000X1.700000*%
%ADD14R,1.700000X1.700000*%
%ADD15C,4.000000*%
%ADD16C,0.800000*%
%ADD17C,0.250000*%
%ADD18C,0.254000*%
G04 APERTURE END LIST*
D10*
X139280428Y-87351428D02*
X140780428Y-87351428D01*
X140780428Y-86994285D01*
X140709000Y-86780000D01*
X140566142Y-86637142D01*
X140423285Y-86565714D01*
X140137571Y-86494285D01*
X139923285Y-86494285D01*
X139637571Y-86565714D01*
X139494714Y-86637142D01*
X139351857Y-86780000D01*
X139280428Y-86994285D01*
X139280428Y-87351428D01*
X139280428Y-85851428D02*
X140780428Y-85851428D01*
X140780428Y-85494285D01*
X140709000Y-85280000D01*
X140566142Y-85137142D01*
X140423285Y-85065714D01*
X140137571Y-84994285D01*
X139923285Y-84994285D01*
X139637571Y-85065714D01*
X139494714Y-85137142D01*
X139351857Y-85280000D01*
X139280428Y-85494285D01*
X139280428Y-85851428D01*
X139280428Y-83494285D02*
X139994714Y-83994285D01*
X139280428Y-84351428D02*
X140780428Y-84351428D01*
X140780428Y-83780000D01*
X140709000Y-83637142D01*
X140637571Y-83565714D01*
X140494714Y-83494285D01*
X140280428Y-83494285D01*
X140137571Y-83565714D01*
X140066142Y-83637142D01*
X139994714Y-83780000D01*
X139994714Y-84351428D01*
X139280428Y-82851428D02*
X140780428Y-82851428D01*
X140780428Y-82494285D01*
X140709000Y-82280000D01*
X140566142Y-82137142D01*
X140423285Y-82065714D01*
X140137571Y-81994285D01*
X139923285Y-81994285D01*
X139637571Y-82065714D01*
X139494714Y-82137142D01*
X139351857Y-82280000D01*
X139280428Y-82494285D01*
X139280428Y-82851428D01*
X139280428Y-81351428D02*
X140280428Y-81351428D01*
X140137571Y-81351428D02*
X140209000Y-81280000D01*
X140280428Y-81137142D01*
X140280428Y-80922857D01*
X140209000Y-80780000D01*
X140066142Y-80708571D01*
X139280428Y-80708571D01*
X140066142Y-80708571D02*
X140209000Y-80637142D01*
X140280428Y-80494285D01*
X140280428Y-80280000D01*
X140209000Y-80137142D01*
X140066142Y-80065714D01*
X139280428Y-80065714D01*
X139280428Y-78708571D02*
X140066142Y-78708571D01*
X140209000Y-78780000D01*
X140280428Y-78922857D01*
X140280428Y-79208571D01*
X140209000Y-79351428D01*
X139351857Y-78708571D02*
X139280428Y-78851428D01*
X139280428Y-79208571D01*
X139351857Y-79351428D01*
X139494714Y-79422857D01*
X139637571Y-79422857D01*
X139780428Y-79351428D01*
X139851857Y-79208571D01*
X139851857Y-78851428D01*
X139923285Y-78708571D01*
X139280428Y-77994285D02*
X140780428Y-77994285D01*
X139851857Y-77851428D02*
X139280428Y-77422857D01*
X140280428Y-77422857D02*
X139709000Y-77994285D01*
X139280428Y-76137142D02*
X140066142Y-76137142D01*
X140209000Y-76208571D01*
X140280428Y-76351428D01*
X140280428Y-76637142D01*
X140209000Y-76780000D01*
X139351857Y-76137142D02*
X139280428Y-76280000D01*
X139280428Y-76637142D01*
X139351857Y-76780000D01*
X139494714Y-76851428D01*
X139637571Y-76851428D01*
X139780428Y-76780000D01*
X139851857Y-76637142D01*
X139851857Y-76280000D01*
X139923285Y-76137142D01*
X139280428Y-75422857D02*
X140280428Y-75422857D01*
X139994714Y-75422857D02*
X140137571Y-75351428D01*
X140209000Y-75280000D01*
X140280428Y-75137142D01*
X140280428Y-74994285D01*
X137730428Y-87387142D02*
X137730428Y-86815714D01*
X138230428Y-87172857D02*
X136944714Y-87172857D01*
X136801857Y-87101428D01*
X136730428Y-86958571D01*
X136730428Y-86815714D01*
X136730428Y-85672857D02*
X137516142Y-85672857D01*
X137659000Y-85744285D01*
X137730428Y-85887142D01*
X137730428Y-86172857D01*
X137659000Y-86315714D01*
X136801857Y-85672857D02*
X136730428Y-85815714D01*
X136730428Y-86172857D01*
X136801857Y-86315714D01*
X136944714Y-86387142D01*
X137087571Y-86387142D01*
X137230428Y-86315714D01*
X137301857Y-86172857D01*
X137301857Y-85815714D01*
X137373285Y-85672857D01*
X136730428Y-84958571D02*
X137730428Y-84958571D01*
X137587571Y-84958571D02*
X137659000Y-84887142D01*
X137730428Y-84744285D01*
X137730428Y-84530000D01*
X137659000Y-84387142D01*
X137516142Y-84315714D01*
X136730428Y-84315714D01*
X137516142Y-84315714D02*
X137659000Y-84244285D01*
X137730428Y-84101428D01*
X137730428Y-83887142D01*
X137659000Y-83744285D01*
X137516142Y-83672857D01*
X136730428Y-83672857D01*
X136730428Y-82315714D02*
X137516142Y-82315714D01*
X137659000Y-82387142D01*
X137730428Y-82530000D01*
X137730428Y-82815714D01*
X137659000Y-82958571D01*
X136801857Y-82315714D02*
X136730428Y-82458571D01*
X136730428Y-82815714D01*
X136801857Y-82958571D01*
X136944714Y-83030000D01*
X137087571Y-83030000D01*
X137230428Y-82958571D01*
X137301857Y-82815714D01*
X137301857Y-82458571D01*
X137373285Y-82315714D01*
X137730428Y-80958571D02*
X136516142Y-80958571D01*
X136373285Y-81030000D01*
X136301857Y-81101428D01*
X136230428Y-81244285D01*
X136230428Y-81458571D01*
X136301857Y-81601428D01*
X136801857Y-80958571D02*
X136730428Y-81101428D01*
X136730428Y-81387142D01*
X136801857Y-81530000D01*
X136873285Y-81601428D01*
X137016142Y-81672857D01*
X137444714Y-81672857D01*
X137587571Y-81601428D01*
X137659000Y-81530000D01*
X137730428Y-81387142D01*
X137730428Y-81101428D01*
X137659000Y-80958571D01*
X136730428Y-80030000D02*
X136801857Y-80172857D01*
X136873285Y-80244285D01*
X137016142Y-80315714D01*
X137444714Y-80315714D01*
X137587571Y-80244285D01*
X137659000Y-80172857D01*
X137730428Y-80030000D01*
X137730428Y-79815714D01*
X137659000Y-79672857D01*
X137587571Y-79601428D01*
X137444714Y-79530000D01*
X137016142Y-79530000D01*
X136873285Y-79601428D01*
X136801857Y-79672857D01*
X136730428Y-79815714D01*
X136730428Y-80030000D01*
X137730428Y-79101428D02*
X137730428Y-78530000D01*
X138230428Y-78887142D02*
X136944714Y-78887142D01*
X136801857Y-78815714D01*
X136730428Y-78672857D01*
X136730428Y-78530000D01*
X136801857Y-77387142D02*
X136730428Y-77530000D01*
X136730428Y-77815714D01*
X136801857Y-77958571D01*
X136873285Y-78030000D01*
X137016142Y-78101428D01*
X137444714Y-78101428D01*
X137587571Y-78030000D01*
X137659000Y-77958571D01*
X137730428Y-77815714D01*
X137730428Y-77530000D01*
X137659000Y-77387142D01*
X136730428Y-76744285D02*
X138230428Y-76744285D01*
X136730428Y-76101428D02*
X137516142Y-76101428D01*
X137659000Y-76172857D01*
X137730428Y-76315714D01*
X137730428Y-76530000D01*
X137659000Y-76672857D01*
X137587571Y-76744285D01*
X136730428Y-75387142D02*
X137730428Y-75387142D01*
X138230428Y-75387142D02*
X138159000Y-75458571D01*
X138087571Y-75387142D01*
X138159000Y-75315714D01*
X138230428Y-75387142D01*
X138087571Y-75387142D01*
D11*
X120174000Y-70752000D03*
X124174000Y-70752000D03*
D12*
X120904000Y-79502000D03*
X123444000Y-79502000D03*
D13*
X140970000Y-94996000D03*
X138430000Y-94996000D03*
X135890000Y-94996000D03*
X133350000Y-94996000D03*
X130810000Y-94996000D03*
X128270000Y-94996000D03*
D14*
X125730000Y-94996000D03*
D13*
X114300000Y-101854000D03*
D14*
X114300000Y-99314000D03*
D13*
X146558000Y-77978000D03*
X146558000Y-75438000D03*
X146558000Y-72898000D03*
D14*
X146558000Y-70358000D03*
D13*
X146558000Y-84582000D03*
D14*
X146558000Y-87122000D03*
D13*
X136906000Y-100076000D03*
X136906000Y-102616000D03*
X134366000Y-100076000D03*
X134366000Y-102616000D03*
X131826000Y-100076000D03*
X131826000Y-102616000D03*
X129286000Y-100076000D03*
X129286000Y-102616000D03*
X126746000Y-100076000D03*
D14*
X126746000Y-102616000D03*
D15*
X151130000Y-67310000D03*
X151130000Y-107950000D03*
X110490000Y-107950000D03*
X110490000Y-67310000D03*
D16*
X125292000Y-84652000D03*
X124714000Y-97536000D03*
X144866000Y-101600000D03*
X115062000Y-88138000D03*
X129794000Y-76962000D03*
X120396000Y-81026000D03*
X130729000Y-75946000D03*
X124714000Y-83312000D03*
D17*
X130048000Y-104394000D02*
X131826000Y-102616000D01*
X125730000Y-104394000D02*
X130048000Y-104394000D01*
X120396000Y-99060000D02*
X125730000Y-104394000D01*
X120396000Y-81026000D02*
X120396000Y-99060000D01*
X124714000Y-83312000D02*
X124714000Y-80518000D01*
X129286000Y-75946000D02*
X130729000Y-75946000D01*
X124714000Y-80518000D02*
X129286000Y-75946000D01*
D18*
G36*
X153797000Y-110617000D02*
G01*
X107823000Y-110617000D01*
X107823000Y-98464000D01*
X112811928Y-98464000D01*
X112811928Y-100164000D01*
X112824188Y-100288482D01*
X112860498Y-100408180D01*
X112919463Y-100518494D01*
X112998815Y-100615185D01*
X113095506Y-100694537D01*
X113205820Y-100753502D01*
X113278380Y-100775513D01*
X113146525Y-100907368D01*
X112984010Y-101150589D01*
X112872068Y-101420842D01*
X112815000Y-101707740D01*
X112815000Y-102000260D01*
X112872068Y-102287158D01*
X112984010Y-102557411D01*
X113146525Y-102800632D01*
X113353368Y-103007475D01*
X113596589Y-103169990D01*
X113866842Y-103281932D01*
X114153740Y-103339000D01*
X114446260Y-103339000D01*
X114733158Y-103281932D01*
X115003411Y-103169990D01*
X115246632Y-103007475D01*
X115453475Y-102800632D01*
X115615990Y-102557411D01*
X115727932Y-102287158D01*
X115785000Y-102000260D01*
X115785000Y-101707740D01*
X115727932Y-101420842D01*
X115615990Y-101150589D01*
X115453475Y-100907368D01*
X115321620Y-100775513D01*
X115394180Y-100753502D01*
X115504494Y-100694537D01*
X115601185Y-100615185D01*
X115680537Y-100518494D01*
X115739502Y-100408180D01*
X115775812Y-100288482D01*
X115788072Y-100164000D01*
X115788072Y-98464000D01*
X115775812Y-98339518D01*
X115739502Y-98219820D01*
X115680537Y-98109506D01*
X115601185Y-98012815D01*
X115504494Y-97933463D01*
X115394180Y-97874498D01*
X115274482Y-97838188D01*
X115150000Y-97825928D01*
X113450000Y-97825928D01*
X113325518Y-97838188D01*
X113205820Y-97874498D01*
X113095506Y-97933463D01*
X112998815Y-98012815D01*
X112919463Y-98109506D01*
X112860498Y-98219820D01*
X112824188Y-98339518D01*
X112811928Y-98464000D01*
X107823000Y-98464000D01*
X107823000Y-80924061D01*
X119361000Y-80924061D01*
X119361000Y-81127939D01*
X119400774Y-81327898D01*
X119478795Y-81516256D01*
X119592063Y-81685774D01*
X119636000Y-81729711D01*
X119636001Y-99022667D01*
X119632324Y-99060000D01*
X119646998Y-99208985D01*
X119690454Y-99352246D01*
X119761026Y-99484276D01*
X119832201Y-99571002D01*
X119856000Y-99600001D01*
X119884998Y-99623799D01*
X125166201Y-104905003D01*
X125189999Y-104934001D01*
X125218997Y-104957799D01*
X125305723Y-105028974D01*
X125437753Y-105099546D01*
X125581014Y-105143003D01*
X125692667Y-105154000D01*
X125692676Y-105154000D01*
X125729999Y-105157676D01*
X125767322Y-105154000D01*
X130010678Y-105154000D01*
X130048000Y-105157676D01*
X130085322Y-105154000D01*
X130085333Y-105154000D01*
X130196986Y-105143003D01*
X130340247Y-105099546D01*
X130472276Y-105028974D01*
X130588001Y-104934001D01*
X130611804Y-104904997D01*
X131459592Y-104057210D01*
X131679740Y-104101000D01*
X131972260Y-104101000D01*
X132259158Y-104043932D01*
X132529411Y-103931990D01*
X132772632Y-103769475D01*
X132979475Y-103562632D01*
X133096000Y-103388240D01*
X133212525Y-103562632D01*
X133419368Y-103769475D01*
X133662589Y-103931990D01*
X133932842Y-104043932D01*
X134219740Y-104101000D01*
X134512260Y-104101000D01*
X134799158Y-104043932D01*
X135069411Y-103931990D01*
X135312632Y-103769475D01*
X135519475Y-103562632D01*
X135636000Y-103388240D01*
X135752525Y-103562632D01*
X135959368Y-103769475D01*
X136202589Y-103931990D01*
X136472842Y-104043932D01*
X136759740Y-104101000D01*
X137052260Y-104101000D01*
X137339158Y-104043932D01*
X137609411Y-103931990D01*
X137852632Y-103769475D01*
X138059475Y-103562632D01*
X138221990Y-103319411D01*
X138333932Y-103049158D01*
X138391000Y-102762260D01*
X138391000Y-102469740D01*
X138333932Y-102182842D01*
X138221990Y-101912589D01*
X138059475Y-101669368D01*
X137852632Y-101462525D01*
X137676594Y-101344900D01*
X137906269Y-101173588D01*
X138101178Y-100957355D01*
X138250157Y-100707252D01*
X138347481Y-100432891D01*
X138226814Y-100203000D01*
X137033000Y-100203000D01*
X137033000Y-100223000D01*
X136779000Y-100223000D01*
X136779000Y-100203000D01*
X134493000Y-100203000D01*
X134493000Y-100223000D01*
X134239000Y-100223000D01*
X134239000Y-100203000D01*
X134219000Y-100203000D01*
X134219000Y-99949000D01*
X134239000Y-99949000D01*
X134239000Y-98755845D01*
X134493000Y-98755845D01*
X134493000Y-99949000D01*
X136779000Y-99949000D01*
X136779000Y-98755845D01*
X137033000Y-98755845D01*
X137033000Y-99949000D01*
X138226814Y-99949000D01*
X138347481Y-99719109D01*
X138250157Y-99444748D01*
X138101178Y-99194645D01*
X137906269Y-98978412D01*
X137672920Y-98804359D01*
X137410099Y-98679175D01*
X137262890Y-98634524D01*
X137033000Y-98755845D01*
X136779000Y-98755845D01*
X136549110Y-98634524D01*
X136401901Y-98679175D01*
X136139080Y-98804359D01*
X135905731Y-98978412D01*
X135710822Y-99194645D01*
X135636000Y-99320255D01*
X135561178Y-99194645D01*
X135366269Y-98978412D01*
X135132920Y-98804359D01*
X134870099Y-98679175D01*
X134722890Y-98634524D01*
X134493000Y-98755845D01*
X134239000Y-98755845D01*
X134009110Y-98634524D01*
X133861901Y-98679175D01*
X133599080Y-98804359D01*
X133365731Y-98978412D01*
X133170822Y-99194645D01*
X133101195Y-99311534D01*
X132979475Y-99129368D01*
X132772632Y-98922525D01*
X132529411Y-98760010D01*
X132259158Y-98648068D01*
X131972260Y-98591000D01*
X131679740Y-98591000D01*
X131392842Y-98648068D01*
X131122589Y-98760010D01*
X130879368Y-98922525D01*
X130672525Y-99129368D01*
X130556000Y-99303760D01*
X130439475Y-99129368D01*
X130232632Y-98922525D01*
X129989411Y-98760010D01*
X129719158Y-98648068D01*
X129432260Y-98591000D01*
X129139740Y-98591000D01*
X128852842Y-98648068D01*
X128582589Y-98760010D01*
X128339368Y-98922525D01*
X128132525Y-99129368D01*
X128016000Y-99303760D01*
X127899475Y-99129368D01*
X127692632Y-98922525D01*
X127449411Y-98760010D01*
X127179158Y-98648068D01*
X126892260Y-98591000D01*
X126599740Y-98591000D01*
X126312842Y-98648068D01*
X126042589Y-98760010D01*
X125799368Y-98922525D01*
X125592525Y-99129368D01*
X125430010Y-99372589D01*
X125318068Y-99642842D01*
X125261000Y-99929740D01*
X125261000Y-100222260D01*
X125318068Y-100509158D01*
X125430010Y-100779411D01*
X125592525Y-101022632D01*
X125724380Y-101154487D01*
X125651820Y-101176498D01*
X125541506Y-101235463D01*
X125444815Y-101314815D01*
X125365463Y-101411506D01*
X125306498Y-101521820D01*
X125270188Y-101641518D01*
X125257928Y-101766000D01*
X125257928Y-102847126D01*
X121156000Y-98745199D01*
X121156000Y-95846000D01*
X124241928Y-95846000D01*
X124254188Y-95970482D01*
X124290498Y-96090180D01*
X124349463Y-96200494D01*
X124428815Y-96297185D01*
X124525506Y-96376537D01*
X124635820Y-96435502D01*
X124755518Y-96471812D01*
X124880000Y-96484072D01*
X125444250Y-96481000D01*
X125603000Y-96322250D01*
X125603000Y-95123000D01*
X124403750Y-95123000D01*
X124245000Y-95281750D01*
X124241928Y-95846000D01*
X121156000Y-95846000D01*
X121156000Y-94146000D01*
X124241928Y-94146000D01*
X124245000Y-94710250D01*
X124403750Y-94869000D01*
X125603000Y-94869000D01*
X125603000Y-93669750D01*
X125857000Y-93669750D01*
X125857000Y-94869000D01*
X125877000Y-94869000D01*
X125877000Y-95123000D01*
X125857000Y-95123000D01*
X125857000Y-96322250D01*
X126015750Y-96481000D01*
X126580000Y-96484072D01*
X126704482Y-96471812D01*
X126824180Y-96435502D01*
X126934494Y-96376537D01*
X127031185Y-96297185D01*
X127110537Y-96200494D01*
X127169502Y-96090180D01*
X127191513Y-96017620D01*
X127323368Y-96149475D01*
X127566589Y-96311990D01*
X127836842Y-96423932D01*
X128123740Y-96481000D01*
X128416260Y-96481000D01*
X128703158Y-96423932D01*
X128973411Y-96311990D01*
X129216632Y-96149475D01*
X129423475Y-95942632D01*
X129540000Y-95768240D01*
X129656525Y-95942632D01*
X129863368Y-96149475D01*
X130106589Y-96311990D01*
X130376842Y-96423932D01*
X130663740Y-96481000D01*
X130956260Y-96481000D01*
X131243158Y-96423932D01*
X131513411Y-96311990D01*
X131756632Y-96149475D01*
X131963475Y-95942632D01*
X132080000Y-95768240D01*
X132196525Y-95942632D01*
X132403368Y-96149475D01*
X132646589Y-96311990D01*
X132916842Y-96423932D01*
X133203740Y-96481000D01*
X133496260Y-96481000D01*
X133783158Y-96423932D01*
X134053411Y-96311990D01*
X134296632Y-96149475D01*
X134503475Y-95942632D01*
X134620000Y-95768240D01*
X134736525Y-95942632D01*
X134943368Y-96149475D01*
X135186589Y-96311990D01*
X135456842Y-96423932D01*
X135743740Y-96481000D01*
X136036260Y-96481000D01*
X136323158Y-96423932D01*
X136593411Y-96311990D01*
X136836632Y-96149475D01*
X137043475Y-95942632D01*
X137160000Y-95768240D01*
X137276525Y-95942632D01*
X137483368Y-96149475D01*
X137726589Y-96311990D01*
X137996842Y-96423932D01*
X138283740Y-96481000D01*
X138576260Y-96481000D01*
X138863158Y-96423932D01*
X139133411Y-96311990D01*
X139376632Y-96149475D01*
X139583475Y-95942632D01*
X139700000Y-95768240D01*
X139816525Y-95942632D01*
X140023368Y-96149475D01*
X140266589Y-96311990D01*
X140536842Y-96423932D01*
X140823740Y-96481000D01*
X141116260Y-96481000D01*
X141403158Y-96423932D01*
X141673411Y-96311990D01*
X141916632Y-96149475D01*
X142123475Y-95942632D01*
X142285990Y-95699411D01*
X142397932Y-95429158D01*
X142455000Y-95142260D01*
X142455000Y-94849740D01*
X142397932Y-94562842D01*
X142285990Y-94292589D01*
X142123475Y-94049368D01*
X141916632Y-93842525D01*
X141673411Y-93680010D01*
X141403158Y-93568068D01*
X141116260Y-93511000D01*
X140823740Y-93511000D01*
X140536842Y-93568068D01*
X140266589Y-93680010D01*
X140023368Y-93842525D01*
X139816525Y-94049368D01*
X139700000Y-94223760D01*
X139583475Y-94049368D01*
X139376632Y-93842525D01*
X139133411Y-93680010D01*
X138863158Y-93568068D01*
X138576260Y-93511000D01*
X138283740Y-93511000D01*
X137996842Y-93568068D01*
X137726589Y-93680010D01*
X137483368Y-93842525D01*
X137276525Y-94049368D01*
X137160000Y-94223760D01*
X137043475Y-94049368D01*
X136836632Y-93842525D01*
X136593411Y-93680010D01*
X136323158Y-93568068D01*
X136036260Y-93511000D01*
X135743740Y-93511000D01*
X135456842Y-93568068D01*
X135186589Y-93680010D01*
X134943368Y-93842525D01*
X134736525Y-94049368D01*
X134620000Y-94223760D01*
X134503475Y-94049368D01*
X134296632Y-93842525D01*
X134053411Y-93680010D01*
X133783158Y-93568068D01*
X133496260Y-93511000D01*
X133203740Y-93511000D01*
X132916842Y-93568068D01*
X132646589Y-93680010D01*
X132403368Y-93842525D01*
X132196525Y-94049368D01*
X132080000Y-94223760D01*
X131963475Y-94049368D01*
X131756632Y-93842525D01*
X131513411Y-93680010D01*
X131243158Y-93568068D01*
X130956260Y-93511000D01*
X130663740Y-93511000D01*
X130376842Y-93568068D01*
X130106589Y-93680010D01*
X129863368Y-93842525D01*
X129656525Y-94049368D01*
X129540000Y-94223760D01*
X129423475Y-94049368D01*
X129216632Y-93842525D01*
X128973411Y-93680010D01*
X128703158Y-93568068D01*
X128416260Y-93511000D01*
X128123740Y-93511000D01*
X127836842Y-93568068D01*
X127566589Y-93680010D01*
X127323368Y-93842525D01*
X127191513Y-93974380D01*
X127169502Y-93901820D01*
X127110537Y-93791506D01*
X127031185Y-93694815D01*
X126934494Y-93615463D01*
X126824180Y-93556498D01*
X126704482Y-93520188D01*
X126580000Y-93507928D01*
X126015750Y-93511000D01*
X125857000Y-93669750D01*
X125603000Y-93669750D01*
X125444250Y-93511000D01*
X124880000Y-93507928D01*
X124755518Y-93520188D01*
X124635820Y-93556498D01*
X124525506Y-93615463D01*
X124428815Y-93694815D01*
X124349463Y-93791506D01*
X124290498Y-93901820D01*
X124254188Y-94021518D01*
X124241928Y-94146000D01*
X121156000Y-94146000D01*
X121156000Y-81729711D01*
X121199937Y-81685774D01*
X121313205Y-81516256D01*
X121391226Y-81327898D01*
X121431000Y-81127939D01*
X121431000Y-80924061D01*
X121391226Y-80724102D01*
X121322140Y-80557316D01*
X121441624Y-80507824D01*
X121627520Y-80383612D01*
X121785612Y-80225520D01*
X121909824Y-80039624D01*
X121995383Y-79833067D01*
X122039000Y-79613788D01*
X122039000Y-79390212D01*
X122309000Y-79390212D01*
X122309000Y-79613788D01*
X122352617Y-79833067D01*
X122438176Y-80039624D01*
X122562388Y-80225520D01*
X122720480Y-80383612D01*
X122906376Y-80507824D01*
X123112933Y-80593383D01*
X123332212Y-80637000D01*
X123555788Y-80637000D01*
X123775067Y-80593383D01*
X123950588Y-80520680D01*
X123954001Y-80555332D01*
X123954000Y-82608289D01*
X123910063Y-82652226D01*
X123796795Y-82821744D01*
X123718774Y-83010102D01*
X123679000Y-83210061D01*
X123679000Y-83413939D01*
X123718774Y-83613898D01*
X123796795Y-83802256D01*
X123910063Y-83971774D01*
X124054226Y-84115937D01*
X124223744Y-84229205D01*
X124412102Y-84307226D01*
X124612061Y-84347000D01*
X124815939Y-84347000D01*
X125015898Y-84307226D01*
X125204256Y-84229205D01*
X125373774Y-84115937D01*
X125517937Y-83971774D01*
X125631205Y-83802256D01*
X125709226Y-83613898D01*
X125749000Y-83413939D01*
X125749000Y-83210061D01*
X125709226Y-83010102D01*
X125631205Y-82821744D01*
X125517937Y-82652226D01*
X125474000Y-82608289D01*
X125474000Y-80832801D01*
X129600803Y-76706000D01*
X130025289Y-76706000D01*
X130069226Y-76749937D01*
X130238744Y-76863205D01*
X130427102Y-76941226D01*
X130627061Y-76981000D01*
X130830939Y-76981000D01*
X131030898Y-76941226D01*
X131219256Y-76863205D01*
X131388774Y-76749937D01*
X131532937Y-76605774D01*
X131646205Y-76436256D01*
X131724226Y-76247898D01*
X131764000Y-76047939D01*
X131764000Y-75844061D01*
X131724226Y-75644102D01*
X131646205Y-75455744D01*
X131532937Y-75286226D01*
X131388774Y-75142063D01*
X131219256Y-75028795D01*
X131030898Y-74950774D01*
X130830939Y-74911000D01*
X130627061Y-74911000D01*
X130427102Y-74950774D01*
X130238744Y-75028795D01*
X130069226Y-75142063D01*
X130025289Y-75186000D01*
X129323322Y-75186000D01*
X129285999Y-75182324D01*
X129248676Y-75186000D01*
X129248667Y-75186000D01*
X129137014Y-75196997D01*
X128993753Y-75240454D01*
X128861724Y-75311026D01*
X128861722Y-75311027D01*
X128861723Y-75311027D01*
X128774996Y-75382201D01*
X128774992Y-75382205D01*
X128745999Y-75405999D01*
X128722205Y-75434992D01*
X124579000Y-79578199D01*
X124579000Y-79390212D01*
X124535383Y-79170933D01*
X124449824Y-78964376D01*
X124325612Y-78778480D01*
X124167520Y-78620388D01*
X123981624Y-78496176D01*
X123775067Y-78410617D01*
X123555788Y-78367000D01*
X123332212Y-78367000D01*
X123112933Y-78410617D01*
X122906376Y-78496176D01*
X122720480Y-78620388D01*
X122562388Y-78778480D01*
X122438176Y-78964376D01*
X122352617Y-79170933D01*
X122309000Y-79390212D01*
X122039000Y-79390212D01*
X121995383Y-79170933D01*
X121909824Y-78964376D01*
X121785612Y-78778480D01*
X121627520Y-78620388D01*
X121441624Y-78496176D01*
X121235067Y-78410617D01*
X121015788Y-78367000D01*
X120792212Y-78367000D01*
X120572933Y-78410617D01*
X120366376Y-78496176D01*
X120180480Y-78620388D01*
X120022388Y-78778480D01*
X119898176Y-78964376D01*
X119812617Y-79170933D01*
X119769000Y-79390212D01*
X119769000Y-79613788D01*
X119812617Y-79833067D01*
X119898176Y-80039624D01*
X119936016Y-80096256D01*
X119905744Y-80108795D01*
X119736226Y-80222063D01*
X119592063Y-80366226D01*
X119478795Y-80535744D01*
X119400774Y-80724102D01*
X119361000Y-80924061D01*
X107823000Y-80924061D01*
X107823000Y-74066429D01*
X135379000Y-74066429D01*
X135379000Y-88493572D01*
X141749000Y-88493572D01*
X141749000Y-86272000D01*
X145069928Y-86272000D01*
X145069928Y-87972000D01*
X145082188Y-88096482D01*
X145118498Y-88216180D01*
X145177463Y-88326494D01*
X145256815Y-88423185D01*
X145353506Y-88502537D01*
X145463820Y-88561502D01*
X145583518Y-88597812D01*
X145708000Y-88610072D01*
X147408000Y-88610072D01*
X147532482Y-88597812D01*
X147652180Y-88561502D01*
X147762494Y-88502537D01*
X147859185Y-88423185D01*
X147938537Y-88326494D01*
X147997502Y-88216180D01*
X148033812Y-88096482D01*
X148046072Y-87972000D01*
X148046072Y-86272000D01*
X148033812Y-86147518D01*
X147997502Y-86027820D01*
X147938537Y-85917506D01*
X147859185Y-85820815D01*
X147762494Y-85741463D01*
X147652180Y-85682498D01*
X147571534Y-85658034D01*
X147655588Y-85582269D01*
X147829641Y-85348920D01*
X147954825Y-85086099D01*
X147999476Y-84938890D01*
X147878155Y-84709000D01*
X146685000Y-84709000D01*
X146685000Y-84729000D01*
X146431000Y-84729000D01*
X146431000Y-84709000D01*
X145237845Y-84709000D01*
X145116524Y-84938890D01*
X145161175Y-85086099D01*
X145286359Y-85348920D01*
X145460412Y-85582269D01*
X145544466Y-85658034D01*
X145463820Y-85682498D01*
X145353506Y-85741463D01*
X145256815Y-85820815D01*
X145177463Y-85917506D01*
X145118498Y-86027820D01*
X145082188Y-86147518D01*
X145069928Y-86272000D01*
X141749000Y-86272000D01*
X141749000Y-84225110D01*
X145116524Y-84225110D01*
X145237845Y-84455000D01*
X146431000Y-84455000D01*
X146431000Y-83261186D01*
X146685000Y-83261186D01*
X146685000Y-84455000D01*
X147878155Y-84455000D01*
X147999476Y-84225110D01*
X147954825Y-84077901D01*
X147829641Y-83815080D01*
X147655588Y-83581731D01*
X147439355Y-83386822D01*
X147189252Y-83237843D01*
X146914891Y-83140519D01*
X146685000Y-83261186D01*
X146431000Y-83261186D01*
X146201109Y-83140519D01*
X145926748Y-83237843D01*
X145676645Y-83386822D01*
X145460412Y-83581731D01*
X145286359Y-83815080D01*
X145161175Y-84077901D01*
X145116524Y-84225110D01*
X141749000Y-84225110D01*
X141749000Y-74066429D01*
X135379000Y-74066429D01*
X107823000Y-74066429D01*
X107823000Y-70152000D01*
X118935928Y-70152000D01*
X118935928Y-71352000D01*
X118948188Y-71476482D01*
X118984498Y-71596180D01*
X119043463Y-71706494D01*
X119122815Y-71803185D01*
X119219506Y-71882537D01*
X119329820Y-71941502D01*
X119449518Y-71977812D01*
X119574000Y-71990072D01*
X120774000Y-71990072D01*
X120898482Y-71977812D01*
X121018180Y-71941502D01*
X121128494Y-71882537D01*
X121225185Y-71803185D01*
X121304537Y-71706494D01*
X121363502Y-71596180D01*
X121399812Y-71476482D01*
X121412072Y-71352000D01*
X121412072Y-70152000D01*
X122935928Y-70152000D01*
X122935928Y-71352000D01*
X122948188Y-71476482D01*
X122984498Y-71596180D01*
X123043463Y-71706494D01*
X123122815Y-71803185D01*
X123219506Y-71882537D01*
X123329820Y-71941502D01*
X123449518Y-71977812D01*
X123574000Y-71990072D01*
X124774000Y-71990072D01*
X124898482Y-71977812D01*
X125018180Y-71941502D01*
X125128494Y-71882537D01*
X125225185Y-71803185D01*
X125304537Y-71706494D01*
X125363502Y-71596180D01*
X125399812Y-71476482D01*
X125412072Y-71352000D01*
X125412072Y-71208000D01*
X145069928Y-71208000D01*
X145082188Y-71332482D01*
X145118498Y-71452180D01*
X145177463Y-71562494D01*
X145256815Y-71659185D01*
X145353506Y-71738537D01*
X145463820Y-71797502D01*
X145536380Y-71819513D01*
X145404525Y-71951368D01*
X145242010Y-72194589D01*
X145130068Y-72464842D01*
X145073000Y-72751740D01*
X145073000Y-73044260D01*
X145130068Y-73331158D01*
X145242010Y-73601411D01*
X145404525Y-73844632D01*
X145611368Y-74051475D01*
X145785760Y-74168000D01*
X145611368Y-74284525D01*
X145404525Y-74491368D01*
X145242010Y-74734589D01*
X145130068Y-75004842D01*
X145073000Y-75291740D01*
X145073000Y-75584260D01*
X145130068Y-75871158D01*
X145242010Y-76141411D01*
X145404525Y-76384632D01*
X145611368Y-76591475D01*
X145785760Y-76708000D01*
X145611368Y-76824525D01*
X145404525Y-77031368D01*
X145242010Y-77274589D01*
X145130068Y-77544842D01*
X145073000Y-77831740D01*
X145073000Y-78124260D01*
X145130068Y-78411158D01*
X145242010Y-78681411D01*
X145404525Y-78924632D01*
X145611368Y-79131475D01*
X145854589Y-79293990D01*
X146124842Y-79405932D01*
X146411740Y-79463000D01*
X146704260Y-79463000D01*
X146991158Y-79405932D01*
X147261411Y-79293990D01*
X147504632Y-79131475D01*
X147711475Y-78924632D01*
X147873990Y-78681411D01*
X147985932Y-78411158D01*
X148043000Y-78124260D01*
X148043000Y-77831740D01*
X147985932Y-77544842D01*
X147873990Y-77274589D01*
X147711475Y-77031368D01*
X147504632Y-76824525D01*
X147330240Y-76708000D01*
X147504632Y-76591475D01*
X147711475Y-76384632D01*
X147873990Y-76141411D01*
X147985932Y-75871158D01*
X148043000Y-75584260D01*
X148043000Y-75291740D01*
X147985932Y-75004842D01*
X147873990Y-74734589D01*
X147711475Y-74491368D01*
X147504632Y-74284525D01*
X147330240Y-74168000D01*
X147504632Y-74051475D01*
X147711475Y-73844632D01*
X147873990Y-73601411D01*
X147985932Y-73331158D01*
X148043000Y-73044260D01*
X148043000Y-72751740D01*
X147985932Y-72464842D01*
X147873990Y-72194589D01*
X147711475Y-71951368D01*
X147579620Y-71819513D01*
X147652180Y-71797502D01*
X147762494Y-71738537D01*
X147859185Y-71659185D01*
X147938537Y-71562494D01*
X147997502Y-71452180D01*
X148033812Y-71332482D01*
X148046072Y-71208000D01*
X148043000Y-70643750D01*
X147884250Y-70485000D01*
X146685000Y-70485000D01*
X146685000Y-70505000D01*
X146431000Y-70505000D01*
X146431000Y-70485000D01*
X145231750Y-70485000D01*
X145073000Y-70643750D01*
X145069928Y-71208000D01*
X125412072Y-71208000D01*
X125412072Y-70152000D01*
X125399812Y-70027518D01*
X125363502Y-69907820D01*
X125304537Y-69797506D01*
X125225185Y-69700815D01*
X125128494Y-69621463D01*
X125018180Y-69562498D01*
X124898482Y-69526188D01*
X124774000Y-69513928D01*
X123574000Y-69513928D01*
X123449518Y-69526188D01*
X123329820Y-69562498D01*
X123219506Y-69621463D01*
X123122815Y-69700815D01*
X123043463Y-69797506D01*
X122984498Y-69907820D01*
X122948188Y-70027518D01*
X122935928Y-70152000D01*
X121412072Y-70152000D01*
X121399812Y-70027518D01*
X121363502Y-69907820D01*
X121304537Y-69797506D01*
X121225185Y-69700815D01*
X121128494Y-69621463D01*
X121018180Y-69562498D01*
X120898482Y-69526188D01*
X120774000Y-69513928D01*
X119574000Y-69513928D01*
X119449518Y-69526188D01*
X119329820Y-69562498D01*
X119219506Y-69621463D01*
X119122815Y-69700815D01*
X119043463Y-69797506D01*
X118984498Y-69907820D01*
X118948188Y-70027518D01*
X118935928Y-70152000D01*
X107823000Y-70152000D01*
X107823000Y-69508000D01*
X145069928Y-69508000D01*
X145073000Y-70072250D01*
X145231750Y-70231000D01*
X146431000Y-70231000D01*
X146431000Y-69031750D01*
X146685000Y-69031750D01*
X146685000Y-70231000D01*
X147884250Y-70231000D01*
X148043000Y-70072250D01*
X148046072Y-69508000D01*
X148033812Y-69383518D01*
X147997502Y-69263820D01*
X147938537Y-69153506D01*
X147859185Y-69056815D01*
X147762494Y-68977463D01*
X147652180Y-68918498D01*
X147532482Y-68882188D01*
X147408000Y-68869928D01*
X146843750Y-68873000D01*
X146685000Y-69031750D01*
X146431000Y-69031750D01*
X146272250Y-68873000D01*
X145708000Y-68869928D01*
X145583518Y-68882188D01*
X145463820Y-68918498D01*
X145353506Y-68977463D01*
X145256815Y-69056815D01*
X145177463Y-69153506D01*
X145118498Y-69263820D01*
X145082188Y-69383518D01*
X145069928Y-69508000D01*
X107823000Y-69508000D01*
X107823000Y-64643000D01*
X153797000Y-64643000D01*
X153797000Y-110617000D01*
G37*
X153797000Y-110617000D02*
X107823000Y-110617000D01*
X107823000Y-98464000D01*
X112811928Y-98464000D01*
X112811928Y-100164000D01*
X112824188Y-100288482D01*
X112860498Y-100408180D01*
X112919463Y-100518494D01*
X112998815Y-100615185D01*
X113095506Y-100694537D01*
X113205820Y-100753502D01*
X113278380Y-100775513D01*
X113146525Y-100907368D01*
X112984010Y-101150589D01*
X112872068Y-101420842D01*
X112815000Y-101707740D01*
X112815000Y-102000260D01*
X112872068Y-102287158D01*
X112984010Y-102557411D01*
X113146525Y-102800632D01*
X113353368Y-103007475D01*
X113596589Y-103169990D01*
X113866842Y-103281932D01*
X114153740Y-103339000D01*
X114446260Y-103339000D01*
X114733158Y-103281932D01*
X115003411Y-103169990D01*
X115246632Y-103007475D01*
X115453475Y-102800632D01*
X115615990Y-102557411D01*
X115727932Y-102287158D01*
X115785000Y-102000260D01*
X115785000Y-101707740D01*
X115727932Y-101420842D01*
X115615990Y-101150589D01*
X115453475Y-100907368D01*
X115321620Y-100775513D01*
X115394180Y-100753502D01*
X115504494Y-100694537D01*
X115601185Y-100615185D01*
X115680537Y-100518494D01*
X115739502Y-100408180D01*
X115775812Y-100288482D01*
X115788072Y-100164000D01*
X115788072Y-98464000D01*
X115775812Y-98339518D01*
X115739502Y-98219820D01*
X115680537Y-98109506D01*
X115601185Y-98012815D01*
X115504494Y-97933463D01*
X115394180Y-97874498D01*
X115274482Y-97838188D01*
X115150000Y-97825928D01*
X113450000Y-97825928D01*
X113325518Y-97838188D01*
X113205820Y-97874498D01*
X113095506Y-97933463D01*
X112998815Y-98012815D01*
X112919463Y-98109506D01*
X112860498Y-98219820D01*
X112824188Y-98339518D01*
X112811928Y-98464000D01*
X107823000Y-98464000D01*
X107823000Y-80924061D01*
X119361000Y-80924061D01*
X119361000Y-81127939D01*
X119400774Y-81327898D01*
X119478795Y-81516256D01*
X119592063Y-81685774D01*
X119636000Y-81729711D01*
X119636001Y-99022667D01*
X119632324Y-99060000D01*
X119646998Y-99208985D01*
X119690454Y-99352246D01*
X119761026Y-99484276D01*
X119832201Y-99571002D01*
X119856000Y-99600001D01*
X119884998Y-99623799D01*
X125166201Y-104905003D01*
X125189999Y-104934001D01*
X125218997Y-104957799D01*
X125305723Y-105028974D01*
X125437753Y-105099546D01*
X125581014Y-105143003D01*
X125692667Y-105154000D01*
X125692676Y-105154000D01*
X125729999Y-105157676D01*
X125767322Y-105154000D01*
X130010678Y-105154000D01*
X130048000Y-105157676D01*
X130085322Y-105154000D01*
X130085333Y-105154000D01*
X130196986Y-105143003D01*
X130340247Y-105099546D01*
X130472276Y-105028974D01*
X130588001Y-104934001D01*
X130611804Y-104904997D01*
X131459592Y-104057210D01*
X131679740Y-104101000D01*
X131972260Y-104101000D01*
X132259158Y-104043932D01*
X132529411Y-103931990D01*
X132772632Y-103769475D01*
X132979475Y-103562632D01*
X133096000Y-103388240D01*
X133212525Y-103562632D01*
X133419368Y-103769475D01*
X133662589Y-103931990D01*
X133932842Y-104043932D01*
X134219740Y-104101000D01*
X134512260Y-104101000D01*
X134799158Y-104043932D01*
X135069411Y-103931990D01*
X135312632Y-103769475D01*
X135519475Y-103562632D01*
X135636000Y-103388240D01*
X135752525Y-103562632D01*
X135959368Y-103769475D01*
X136202589Y-103931990D01*
X136472842Y-104043932D01*
X136759740Y-104101000D01*
X137052260Y-104101000D01*
X137339158Y-104043932D01*
X137609411Y-103931990D01*
X137852632Y-103769475D01*
X138059475Y-103562632D01*
X138221990Y-103319411D01*
X138333932Y-103049158D01*
X138391000Y-102762260D01*
X138391000Y-102469740D01*
X138333932Y-102182842D01*
X138221990Y-101912589D01*
X138059475Y-101669368D01*
X137852632Y-101462525D01*
X137676594Y-101344900D01*
X137906269Y-101173588D01*
X138101178Y-100957355D01*
X138250157Y-100707252D01*
X138347481Y-100432891D01*
X138226814Y-100203000D01*
X137033000Y-100203000D01*
X137033000Y-100223000D01*
X136779000Y-100223000D01*
X136779000Y-100203000D01*
X134493000Y-100203000D01*
X134493000Y-100223000D01*
X134239000Y-100223000D01*
X134239000Y-100203000D01*
X134219000Y-100203000D01*
X134219000Y-99949000D01*
X134239000Y-99949000D01*
X134239000Y-98755845D01*
X134493000Y-98755845D01*
X134493000Y-99949000D01*
X136779000Y-99949000D01*
X136779000Y-98755845D01*
X137033000Y-98755845D01*
X137033000Y-99949000D01*
X138226814Y-99949000D01*
X138347481Y-99719109D01*
X138250157Y-99444748D01*
X138101178Y-99194645D01*
X137906269Y-98978412D01*
X137672920Y-98804359D01*
X137410099Y-98679175D01*
X137262890Y-98634524D01*
X137033000Y-98755845D01*
X136779000Y-98755845D01*
X136549110Y-98634524D01*
X136401901Y-98679175D01*
X136139080Y-98804359D01*
X135905731Y-98978412D01*
X135710822Y-99194645D01*
X135636000Y-99320255D01*
X135561178Y-99194645D01*
X135366269Y-98978412D01*
X135132920Y-98804359D01*
X134870099Y-98679175D01*
X134722890Y-98634524D01*
X134493000Y-98755845D01*
X134239000Y-98755845D01*
X134009110Y-98634524D01*
X133861901Y-98679175D01*
X133599080Y-98804359D01*
X133365731Y-98978412D01*
X133170822Y-99194645D01*
X133101195Y-99311534D01*
X132979475Y-99129368D01*
X132772632Y-98922525D01*
X132529411Y-98760010D01*
X132259158Y-98648068D01*
X131972260Y-98591000D01*
X131679740Y-98591000D01*
X131392842Y-98648068D01*
X131122589Y-98760010D01*
X130879368Y-98922525D01*
X130672525Y-99129368D01*
X130556000Y-99303760D01*
X130439475Y-99129368D01*
X130232632Y-98922525D01*
X129989411Y-98760010D01*
X129719158Y-98648068D01*
X129432260Y-98591000D01*
X129139740Y-98591000D01*
X128852842Y-98648068D01*
X128582589Y-98760010D01*
X128339368Y-98922525D01*
X128132525Y-99129368D01*
X128016000Y-99303760D01*
X127899475Y-99129368D01*
X127692632Y-98922525D01*
X127449411Y-98760010D01*
X127179158Y-98648068D01*
X126892260Y-98591000D01*
X126599740Y-98591000D01*
X126312842Y-98648068D01*
X126042589Y-98760010D01*
X125799368Y-98922525D01*
X125592525Y-99129368D01*
X125430010Y-99372589D01*
X125318068Y-99642842D01*
X125261000Y-99929740D01*
X125261000Y-100222260D01*
X125318068Y-100509158D01*
X125430010Y-100779411D01*
X125592525Y-101022632D01*
X125724380Y-101154487D01*
X125651820Y-101176498D01*
X125541506Y-101235463D01*
X125444815Y-101314815D01*
X125365463Y-101411506D01*
X125306498Y-101521820D01*
X125270188Y-101641518D01*
X125257928Y-101766000D01*
X125257928Y-102847126D01*
X121156000Y-98745199D01*
X121156000Y-95846000D01*
X124241928Y-95846000D01*
X124254188Y-95970482D01*
X124290498Y-96090180D01*
X124349463Y-96200494D01*
X124428815Y-96297185D01*
X124525506Y-96376537D01*
X124635820Y-96435502D01*
X124755518Y-96471812D01*
X124880000Y-96484072D01*
X125444250Y-96481000D01*
X125603000Y-96322250D01*
X125603000Y-95123000D01*
X124403750Y-95123000D01*
X124245000Y-95281750D01*
X124241928Y-95846000D01*
X121156000Y-95846000D01*
X121156000Y-94146000D01*
X124241928Y-94146000D01*
X124245000Y-94710250D01*
X124403750Y-94869000D01*
X125603000Y-94869000D01*
X125603000Y-93669750D01*
X125857000Y-93669750D01*
X125857000Y-94869000D01*
X125877000Y-94869000D01*
X125877000Y-95123000D01*
X125857000Y-95123000D01*
X125857000Y-96322250D01*
X126015750Y-96481000D01*
X126580000Y-96484072D01*
X126704482Y-96471812D01*
X126824180Y-96435502D01*
X126934494Y-96376537D01*
X127031185Y-96297185D01*
X127110537Y-96200494D01*
X127169502Y-96090180D01*
X127191513Y-96017620D01*
X127323368Y-96149475D01*
X127566589Y-96311990D01*
X127836842Y-96423932D01*
X128123740Y-96481000D01*
X128416260Y-96481000D01*
X128703158Y-96423932D01*
X128973411Y-96311990D01*
X129216632Y-96149475D01*
X129423475Y-95942632D01*
X129540000Y-95768240D01*
X129656525Y-95942632D01*
X129863368Y-96149475D01*
X130106589Y-96311990D01*
X130376842Y-96423932D01*
X130663740Y-96481000D01*
X130956260Y-96481000D01*
X131243158Y-96423932D01*
X131513411Y-96311990D01*
X131756632Y-96149475D01*
X131963475Y-95942632D01*
X132080000Y-95768240D01*
X132196525Y-95942632D01*
X132403368Y-96149475D01*
X132646589Y-96311990D01*
X132916842Y-96423932D01*
X133203740Y-96481000D01*
X133496260Y-96481000D01*
X133783158Y-96423932D01*
X134053411Y-96311990D01*
X134296632Y-96149475D01*
X134503475Y-95942632D01*
X134620000Y-95768240D01*
X134736525Y-95942632D01*
X134943368Y-96149475D01*
X135186589Y-96311990D01*
X135456842Y-96423932D01*
X135743740Y-96481000D01*
X136036260Y-96481000D01*
X136323158Y-96423932D01*
X136593411Y-96311990D01*
X136836632Y-96149475D01*
X137043475Y-95942632D01*
X137160000Y-95768240D01*
X137276525Y-95942632D01*
X137483368Y-96149475D01*
X137726589Y-96311990D01*
X137996842Y-96423932D01*
X138283740Y-96481000D01*
X138576260Y-96481000D01*
X138863158Y-96423932D01*
X139133411Y-96311990D01*
X139376632Y-96149475D01*
X139583475Y-95942632D01*
X139700000Y-95768240D01*
X139816525Y-95942632D01*
X140023368Y-96149475D01*
X140266589Y-96311990D01*
X140536842Y-96423932D01*
X140823740Y-96481000D01*
X141116260Y-96481000D01*
X141403158Y-96423932D01*
X141673411Y-96311990D01*
X141916632Y-96149475D01*
X142123475Y-95942632D01*
X142285990Y-95699411D01*
X142397932Y-95429158D01*
X142455000Y-95142260D01*
X142455000Y-94849740D01*
X142397932Y-94562842D01*
X142285990Y-94292589D01*
X142123475Y-94049368D01*
X141916632Y-93842525D01*
X141673411Y-93680010D01*
X141403158Y-93568068D01*
X141116260Y-93511000D01*
X140823740Y-93511000D01*
X140536842Y-93568068D01*
X140266589Y-93680010D01*
X140023368Y-93842525D01*
X139816525Y-94049368D01*
X139700000Y-94223760D01*
X139583475Y-94049368D01*
X139376632Y-93842525D01*
X139133411Y-93680010D01*
X138863158Y-93568068D01*
X138576260Y-93511000D01*
X138283740Y-93511000D01*
X137996842Y-93568068D01*
X137726589Y-93680010D01*
X137483368Y-93842525D01*
X137276525Y-94049368D01*
X137160000Y-94223760D01*
X137043475Y-94049368D01*
X136836632Y-93842525D01*
X136593411Y-93680010D01*
X136323158Y-93568068D01*
X136036260Y-93511000D01*
X135743740Y-93511000D01*
X135456842Y-93568068D01*
X135186589Y-93680010D01*
X134943368Y-93842525D01*
X134736525Y-94049368D01*
X134620000Y-94223760D01*
X134503475Y-94049368D01*
X134296632Y-93842525D01*
X134053411Y-93680010D01*
X133783158Y-93568068D01*
X133496260Y-93511000D01*
X133203740Y-93511000D01*
X132916842Y-93568068D01*
X132646589Y-93680010D01*
X132403368Y-93842525D01*
X132196525Y-94049368D01*
X132080000Y-94223760D01*
X131963475Y-94049368D01*
X131756632Y-93842525D01*
X131513411Y-93680010D01*
X131243158Y-93568068D01*
X130956260Y-93511000D01*
X130663740Y-93511000D01*
X130376842Y-93568068D01*
X130106589Y-93680010D01*
X129863368Y-93842525D01*
X129656525Y-94049368D01*
X129540000Y-94223760D01*
X129423475Y-94049368D01*
X129216632Y-93842525D01*
X128973411Y-93680010D01*
X128703158Y-93568068D01*
X128416260Y-93511000D01*
X128123740Y-93511000D01*
X127836842Y-93568068D01*
X127566589Y-93680010D01*
X127323368Y-93842525D01*
X127191513Y-93974380D01*
X127169502Y-93901820D01*
X127110537Y-93791506D01*
X127031185Y-93694815D01*
X126934494Y-93615463D01*
X126824180Y-93556498D01*
X126704482Y-93520188D01*
X126580000Y-93507928D01*
X126015750Y-93511000D01*
X125857000Y-93669750D01*
X125603000Y-93669750D01*
X125444250Y-93511000D01*
X124880000Y-93507928D01*
X124755518Y-93520188D01*
X124635820Y-93556498D01*
X124525506Y-93615463D01*
X124428815Y-93694815D01*
X124349463Y-93791506D01*
X124290498Y-93901820D01*
X124254188Y-94021518D01*
X124241928Y-94146000D01*
X121156000Y-94146000D01*
X121156000Y-81729711D01*
X121199937Y-81685774D01*
X121313205Y-81516256D01*
X121391226Y-81327898D01*
X121431000Y-81127939D01*
X121431000Y-80924061D01*
X121391226Y-80724102D01*
X121322140Y-80557316D01*
X121441624Y-80507824D01*
X121627520Y-80383612D01*
X121785612Y-80225520D01*
X121909824Y-80039624D01*
X121995383Y-79833067D01*
X122039000Y-79613788D01*
X122039000Y-79390212D01*
X122309000Y-79390212D01*
X122309000Y-79613788D01*
X122352617Y-79833067D01*
X122438176Y-80039624D01*
X122562388Y-80225520D01*
X122720480Y-80383612D01*
X122906376Y-80507824D01*
X123112933Y-80593383D01*
X123332212Y-80637000D01*
X123555788Y-80637000D01*
X123775067Y-80593383D01*
X123950588Y-80520680D01*
X123954001Y-80555332D01*
X123954000Y-82608289D01*
X123910063Y-82652226D01*
X123796795Y-82821744D01*
X123718774Y-83010102D01*
X123679000Y-83210061D01*
X123679000Y-83413939D01*
X123718774Y-83613898D01*
X123796795Y-83802256D01*
X123910063Y-83971774D01*
X124054226Y-84115937D01*
X124223744Y-84229205D01*
X124412102Y-84307226D01*
X124612061Y-84347000D01*
X124815939Y-84347000D01*
X125015898Y-84307226D01*
X125204256Y-84229205D01*
X125373774Y-84115937D01*
X125517937Y-83971774D01*
X125631205Y-83802256D01*
X125709226Y-83613898D01*
X125749000Y-83413939D01*
X125749000Y-83210061D01*
X125709226Y-83010102D01*
X125631205Y-82821744D01*
X125517937Y-82652226D01*
X125474000Y-82608289D01*
X125474000Y-80832801D01*
X129600803Y-76706000D01*
X130025289Y-76706000D01*
X130069226Y-76749937D01*
X130238744Y-76863205D01*
X130427102Y-76941226D01*
X130627061Y-76981000D01*
X130830939Y-76981000D01*
X131030898Y-76941226D01*
X131219256Y-76863205D01*
X131388774Y-76749937D01*
X131532937Y-76605774D01*
X131646205Y-76436256D01*
X131724226Y-76247898D01*
X131764000Y-76047939D01*
X131764000Y-75844061D01*
X131724226Y-75644102D01*
X131646205Y-75455744D01*
X131532937Y-75286226D01*
X131388774Y-75142063D01*
X131219256Y-75028795D01*
X131030898Y-74950774D01*
X130830939Y-74911000D01*
X130627061Y-74911000D01*
X130427102Y-74950774D01*
X130238744Y-75028795D01*
X130069226Y-75142063D01*
X130025289Y-75186000D01*
X129323322Y-75186000D01*
X129285999Y-75182324D01*
X129248676Y-75186000D01*
X129248667Y-75186000D01*
X129137014Y-75196997D01*
X128993753Y-75240454D01*
X128861724Y-75311026D01*
X128861722Y-75311027D01*
X128861723Y-75311027D01*
X128774996Y-75382201D01*
X128774992Y-75382205D01*
X128745999Y-75405999D01*
X128722205Y-75434992D01*
X124579000Y-79578199D01*
X124579000Y-79390212D01*
X124535383Y-79170933D01*
X124449824Y-78964376D01*
X124325612Y-78778480D01*
X124167520Y-78620388D01*
X123981624Y-78496176D01*
X123775067Y-78410617D01*
X123555788Y-78367000D01*
X123332212Y-78367000D01*
X123112933Y-78410617D01*
X122906376Y-78496176D01*
X122720480Y-78620388D01*
X122562388Y-78778480D01*
X122438176Y-78964376D01*
X122352617Y-79170933D01*
X122309000Y-79390212D01*
X122039000Y-79390212D01*
X121995383Y-79170933D01*
X121909824Y-78964376D01*
X121785612Y-78778480D01*
X121627520Y-78620388D01*
X121441624Y-78496176D01*
X121235067Y-78410617D01*
X121015788Y-78367000D01*
X120792212Y-78367000D01*
X120572933Y-78410617D01*
X120366376Y-78496176D01*
X120180480Y-78620388D01*
X120022388Y-78778480D01*
X119898176Y-78964376D01*
X119812617Y-79170933D01*
X119769000Y-79390212D01*
X119769000Y-79613788D01*
X119812617Y-79833067D01*
X119898176Y-80039624D01*
X119936016Y-80096256D01*
X119905744Y-80108795D01*
X119736226Y-80222063D01*
X119592063Y-80366226D01*
X119478795Y-80535744D01*
X119400774Y-80724102D01*
X119361000Y-80924061D01*
X107823000Y-80924061D01*
X107823000Y-74066429D01*
X135379000Y-74066429D01*
X135379000Y-88493572D01*
X141749000Y-88493572D01*
X141749000Y-86272000D01*
X145069928Y-86272000D01*
X145069928Y-87972000D01*
X145082188Y-88096482D01*
X145118498Y-88216180D01*
X145177463Y-88326494D01*
X145256815Y-88423185D01*
X145353506Y-88502537D01*
X145463820Y-88561502D01*
X145583518Y-88597812D01*
X145708000Y-88610072D01*
X147408000Y-88610072D01*
X147532482Y-88597812D01*
X147652180Y-88561502D01*
X147762494Y-88502537D01*
X147859185Y-88423185D01*
X147938537Y-88326494D01*
X147997502Y-88216180D01*
X148033812Y-88096482D01*
X148046072Y-87972000D01*
X148046072Y-86272000D01*
X148033812Y-86147518D01*
X147997502Y-86027820D01*
X147938537Y-85917506D01*
X147859185Y-85820815D01*
X147762494Y-85741463D01*
X147652180Y-85682498D01*
X147571534Y-85658034D01*
X147655588Y-85582269D01*
X147829641Y-85348920D01*
X147954825Y-85086099D01*
X147999476Y-84938890D01*
X147878155Y-84709000D01*
X146685000Y-84709000D01*
X146685000Y-84729000D01*
X146431000Y-84729000D01*
X146431000Y-84709000D01*
X145237845Y-84709000D01*
X145116524Y-84938890D01*
X145161175Y-85086099D01*
X145286359Y-85348920D01*
X145460412Y-85582269D01*
X145544466Y-85658034D01*
X145463820Y-85682498D01*
X145353506Y-85741463D01*
X145256815Y-85820815D01*
X145177463Y-85917506D01*
X145118498Y-86027820D01*
X145082188Y-86147518D01*
X145069928Y-86272000D01*
X141749000Y-86272000D01*
X141749000Y-84225110D01*
X145116524Y-84225110D01*
X145237845Y-84455000D01*
X146431000Y-84455000D01*
X146431000Y-83261186D01*
X146685000Y-83261186D01*
X146685000Y-84455000D01*
X147878155Y-84455000D01*
X147999476Y-84225110D01*
X147954825Y-84077901D01*
X147829641Y-83815080D01*
X147655588Y-83581731D01*
X147439355Y-83386822D01*
X147189252Y-83237843D01*
X146914891Y-83140519D01*
X146685000Y-83261186D01*
X146431000Y-83261186D01*
X146201109Y-83140519D01*
X145926748Y-83237843D01*
X145676645Y-83386822D01*
X145460412Y-83581731D01*
X145286359Y-83815080D01*
X145161175Y-84077901D01*
X145116524Y-84225110D01*
X141749000Y-84225110D01*
X141749000Y-74066429D01*
X135379000Y-74066429D01*
X107823000Y-74066429D01*
X107823000Y-70152000D01*
X118935928Y-70152000D01*
X118935928Y-71352000D01*
X118948188Y-71476482D01*
X118984498Y-71596180D01*
X119043463Y-71706494D01*
X119122815Y-71803185D01*
X119219506Y-71882537D01*
X119329820Y-71941502D01*
X119449518Y-71977812D01*
X119574000Y-71990072D01*
X120774000Y-71990072D01*
X120898482Y-71977812D01*
X121018180Y-71941502D01*
X121128494Y-71882537D01*
X121225185Y-71803185D01*
X121304537Y-71706494D01*
X121363502Y-71596180D01*
X121399812Y-71476482D01*
X121412072Y-71352000D01*
X121412072Y-70152000D01*
X122935928Y-70152000D01*
X122935928Y-71352000D01*
X122948188Y-71476482D01*
X122984498Y-71596180D01*
X123043463Y-71706494D01*
X123122815Y-71803185D01*
X123219506Y-71882537D01*
X123329820Y-71941502D01*
X123449518Y-71977812D01*
X123574000Y-71990072D01*
X124774000Y-71990072D01*
X124898482Y-71977812D01*
X125018180Y-71941502D01*
X125128494Y-71882537D01*
X125225185Y-71803185D01*
X125304537Y-71706494D01*
X125363502Y-71596180D01*
X125399812Y-71476482D01*
X125412072Y-71352000D01*
X125412072Y-71208000D01*
X145069928Y-71208000D01*
X145082188Y-71332482D01*
X145118498Y-71452180D01*
X145177463Y-71562494D01*
X145256815Y-71659185D01*
X145353506Y-71738537D01*
X145463820Y-71797502D01*
X145536380Y-71819513D01*
X145404525Y-71951368D01*
X145242010Y-72194589D01*
X145130068Y-72464842D01*
X145073000Y-72751740D01*
X145073000Y-73044260D01*
X145130068Y-73331158D01*
X145242010Y-73601411D01*
X145404525Y-73844632D01*
X145611368Y-74051475D01*
X145785760Y-74168000D01*
X145611368Y-74284525D01*
X145404525Y-74491368D01*
X145242010Y-74734589D01*
X145130068Y-75004842D01*
X145073000Y-75291740D01*
X145073000Y-75584260D01*
X145130068Y-75871158D01*
X145242010Y-76141411D01*
X145404525Y-76384632D01*
X145611368Y-76591475D01*
X145785760Y-76708000D01*
X145611368Y-76824525D01*
X145404525Y-77031368D01*
X145242010Y-77274589D01*
X145130068Y-77544842D01*
X145073000Y-77831740D01*
X145073000Y-78124260D01*
X145130068Y-78411158D01*
X145242010Y-78681411D01*
X145404525Y-78924632D01*
X145611368Y-79131475D01*
X145854589Y-79293990D01*
X146124842Y-79405932D01*
X146411740Y-79463000D01*
X146704260Y-79463000D01*
X146991158Y-79405932D01*
X147261411Y-79293990D01*
X147504632Y-79131475D01*
X147711475Y-78924632D01*
X147873990Y-78681411D01*
X147985932Y-78411158D01*
X148043000Y-78124260D01*
X148043000Y-77831740D01*
X147985932Y-77544842D01*
X147873990Y-77274589D01*
X147711475Y-77031368D01*
X147504632Y-76824525D01*
X147330240Y-76708000D01*
X147504632Y-76591475D01*
X147711475Y-76384632D01*
X147873990Y-76141411D01*
X147985932Y-75871158D01*
X148043000Y-75584260D01*
X148043000Y-75291740D01*
X147985932Y-75004842D01*
X147873990Y-74734589D01*
X147711475Y-74491368D01*
X147504632Y-74284525D01*
X147330240Y-74168000D01*
X147504632Y-74051475D01*
X147711475Y-73844632D01*
X147873990Y-73601411D01*
X147985932Y-73331158D01*
X148043000Y-73044260D01*
X148043000Y-72751740D01*
X147985932Y-72464842D01*
X147873990Y-72194589D01*
X147711475Y-71951368D01*
X147579620Y-71819513D01*
X147652180Y-71797502D01*
X147762494Y-71738537D01*
X147859185Y-71659185D01*
X147938537Y-71562494D01*
X147997502Y-71452180D01*
X148033812Y-71332482D01*
X148046072Y-71208000D01*
X148043000Y-70643750D01*
X147884250Y-70485000D01*
X146685000Y-70485000D01*
X146685000Y-70505000D01*
X146431000Y-70505000D01*
X146431000Y-70485000D01*
X145231750Y-70485000D01*
X145073000Y-70643750D01*
X145069928Y-71208000D01*
X125412072Y-71208000D01*
X125412072Y-70152000D01*
X125399812Y-70027518D01*
X125363502Y-69907820D01*
X125304537Y-69797506D01*
X125225185Y-69700815D01*
X125128494Y-69621463D01*
X125018180Y-69562498D01*
X124898482Y-69526188D01*
X124774000Y-69513928D01*
X123574000Y-69513928D01*
X123449518Y-69526188D01*
X123329820Y-69562498D01*
X123219506Y-69621463D01*
X123122815Y-69700815D01*
X123043463Y-69797506D01*
X122984498Y-69907820D01*
X122948188Y-70027518D01*
X122935928Y-70152000D01*
X121412072Y-70152000D01*
X121399812Y-70027518D01*
X121363502Y-69907820D01*
X121304537Y-69797506D01*
X121225185Y-69700815D01*
X121128494Y-69621463D01*
X121018180Y-69562498D01*
X120898482Y-69526188D01*
X120774000Y-69513928D01*
X119574000Y-69513928D01*
X119449518Y-69526188D01*
X119329820Y-69562498D01*
X119219506Y-69621463D01*
X119122815Y-69700815D01*
X119043463Y-69797506D01*
X118984498Y-69907820D01*
X118948188Y-70027518D01*
X118935928Y-70152000D01*
X107823000Y-70152000D01*
X107823000Y-69508000D01*
X145069928Y-69508000D01*
X145073000Y-70072250D01*
X145231750Y-70231000D01*
X146431000Y-70231000D01*
X146431000Y-69031750D01*
X146685000Y-69031750D01*
X146685000Y-70231000D01*
X147884250Y-70231000D01*
X148043000Y-70072250D01*
X148046072Y-69508000D01*
X148033812Y-69383518D01*
X147997502Y-69263820D01*
X147938537Y-69153506D01*
X147859185Y-69056815D01*
X147762494Y-68977463D01*
X147652180Y-68918498D01*
X147532482Y-68882188D01*
X147408000Y-68869928D01*
X146843750Y-68873000D01*
X146685000Y-69031750D01*
X146431000Y-69031750D01*
X146272250Y-68873000D01*
X145708000Y-68869928D01*
X145583518Y-68882188D01*
X145463820Y-68918498D01*
X145353506Y-68977463D01*
X145256815Y-69056815D01*
X145177463Y-69153506D01*
X145118498Y-69263820D01*
X145082188Y-69383518D01*
X145069928Y-69508000D01*
X107823000Y-69508000D01*
X107823000Y-64643000D01*
X153797000Y-64643000D01*
X153797000Y-110617000D01*
M02*
