M48
; DRILL file {KiCad 5.1.5-1.fc30} date Sat 08 Feb 2020 12:59:51 AM MSK
; FORMAT={-:-/ absolute / inch / decimal}
; #@! TF.CreationDate,2020-02-08T00:59:51+03:00
; #@! TF.GenerationSoftware,Kicad,Pcbnew,5.1.5-1.fc30
; #@! TF.FileFunction,Plated,1,2,PTH
FMAT,2
INCH
T1C0.0157
T2C0.0197
T3C0.0315
T4C0.0394
T5C0.1181
%
G90
G05
T1
X4.53Y-3.47
X4.74Y-3.19
X4.91Y-3.28
X4.91Y-3.84
X4.9328Y-3.3328
X5.11Y-3.03
X5.1468Y-2.99
X5.7034Y-4.0
T2
X4.76Y-3.13
X4.86Y-3.13
T3
X4.7313Y-2.7855
X4.8887Y-2.7855
T4
X5.77Y-2.77
X5.77Y-2.87
X5.77Y-2.97
X5.77Y-3.07
X5.77Y-3.33
X5.77Y-3.43
X4.99Y-3.94
X4.99Y-4.04
X5.09Y-3.94
X5.09Y-4.04
X5.19Y-3.94
X5.19Y-4.04
X5.29Y-3.94
X5.29Y-4.04
X5.39Y-3.94
X5.39Y-4.04
X4.95Y-3.74
X5.05Y-3.74
X5.15Y-3.74
X5.25Y-3.74
X5.35Y-3.74
X5.45Y-3.74
X5.55Y-3.74
X4.5Y-3.91
X4.5Y-4.01
T5
X4.35Y-2.65
X4.35Y-4.25
X5.95Y-2.65
X5.95Y-4.25
T0
M30
