M48
; DRILL file {KiCad 5.1.5-1.fc30} date Wed 05 Feb 2020 12:11:26 AM MSK
; FORMAT={-:-/ absolute / inch / decimal}
; #@! TF.CreationDate,2020-02-05T00:11:26+03:00
; #@! TF.GenerationSoftware,Kicad,Pcbnew,5.1.5-1.fc30
; #@! TF.FileFunction,Plated,1,4,PTH
FMAT,2
INCH
T1C0.0197
T2C0.0276
T3C0.0295
T4C0.0315
T5C0.0354
T6C0.0394
T7C0.0433
T8C0.1181
%
G90
G05
T1
X6.54Y-2.58
X6.54Y-2.68
T2
X7.27Y-3.86
X6.78Y-2.98
X7.41Y-4.18
X7.19Y-4.7
X7.11Y-2.98
X7.44Y-3.74
X7.64Y-3.74
X6.78Y-3.48
X7.64Y-4.7
X7.41Y-4.55
X6.78Y-3.83
X6.78Y-3.28
X6.78Y-3.63
X7.44Y-3.86
T3
X6.41Y-4.51
X6.46Y-4.51
X6.51Y-4.51
T4
X7.02Y-3.46
X7.62Y-3.46
X7.02Y-2.73
X7.62Y-2.73
X6.63Y-2.58
X6.63Y-2.68
X6.63Y-2.78
X6.63Y-2.88
X6.93Y-2.58
X6.93Y-2.68
X6.93Y-2.78
X6.93Y-2.88
X6.46Y-3.8279
X6.46Y-4.02
X7.02Y-3.58
X7.62Y-3.58
X5.93Y-4.22
X6.53Y-4.22
X6.63Y-3.08
X6.63Y-3.18
X6.63Y-3.28
X6.63Y-3.38
X6.63Y-3.48
X6.63Y-3.58
X6.63Y-3.68
X6.63Y-3.78
X6.63Y-3.88
X6.63Y-3.98
X6.63Y-4.08
X6.63Y-4.18
X6.63Y-4.28
X6.63Y-4.38
X6.93Y-3.08
X6.93Y-3.18
X6.93Y-3.28
X6.93Y-3.38
X6.93Y-3.48
X6.93Y-3.58
X6.93Y-3.68
X6.93Y-3.78
X6.93Y-3.88
X6.93Y-3.98
X6.93Y-4.08
X6.93Y-4.18
X6.93Y-4.28
X6.93Y-4.38
X6.2Y-3.56
X6.2Y-3.6584
X6.52Y-3.04
X6.52Y-3.64
X6.1Y-3.83
X6.2969Y-3.83
X7.02Y-3.34
X7.62Y-3.34
X7.02Y-2.61
X7.62Y-2.61
X5.93Y-4.34
X6.53Y-4.34
X6.1Y-4.02
X6.2969Y-4.02
X6.1955Y-2.5513
X6.1955Y-2.7087
X7.02Y-2.85
X7.62Y-2.85
T5
X7.57Y-3.12
X7.57Y-3.22
X7.39Y-3.12
X7.39Y-3.22
X7.21Y-3.12
X7.21Y-3.22
T6
X6.93Y-4.58
X7.03Y-4.58
X5.91Y-3.23
X5.91Y-3.33
X7.19Y-3.98
X7.19Y-4.08
X7.19Y-4.18
X7.19Y-4.28
X7.19Y-4.38
X7.19Y-4.48
X7.19Y-4.58
X7.54Y-4.18
X7.54Y-4.28
X7.54Y-4.38
X7.54Y-4.48
X7.54Y-4.58
X7.64Y-4.18
X7.64Y-4.28
X7.64Y-4.38
X7.64Y-4.48
X7.64Y-4.58
X7.34Y-3.98
X7.44Y-3.98
X7.54Y-3.98
X7.64Y-3.98
T7
X6.13Y-3.33
X6.23Y-3.33
X6.33Y-3.33
X6.0341Y-2.8428
X6.0341Y-3.02
X6.29Y-2.8428
X6.29Y-3.02
T8
X5.85Y-2.5
X5.85Y-4.75
X7.8Y-2.5
X7.8Y-4.75
T0
M30
