G04 #@! TF.GenerationSoftware,KiCad,Pcbnew,5.1.5-1.fc30*
G04 #@! TF.CreationDate,2020-01-16T12:22:22+03:00*
G04 #@! TF.ProjectId,Tamagotchi-Atmega8,54616d61-676f-4746-9368-692d41746d65,rev?*
G04 #@! TF.SameCoordinates,Original*
G04 #@! TF.FileFunction,Soldermask,Top*
G04 #@! TF.FilePolarity,Negative*
%FSLAX46Y46*%
G04 Gerber Fmt 4.6, Leading zero omitted, Abs format (unit mm)*
G04 Created by KiCad (PCBNEW 5.1.5-1.fc30) date 2020-01-16 12:22:22*
%MOMM*%
%LPD*%
G04 APERTURE LIST*
%ADD10C,0.100000*%
G04 APERTURE END LIST*
D10*
G36*
X148981000Y-104193000D02*
G01*
X146879000Y-104193000D01*
X146879000Y-102591000D01*
X148981000Y-102591000D01*
X148981000Y-104193000D01*
G37*
G36*
X131939512Y-101719927D02*
G01*
X132088812Y-101749624D01*
X132252784Y-101817544D01*
X132400354Y-101916147D01*
X132525853Y-102041646D01*
X132624456Y-102189216D01*
X132692376Y-102353188D01*
X132727000Y-102527259D01*
X132727000Y-102704741D01*
X132692376Y-102878812D01*
X132624456Y-103042784D01*
X132525853Y-103190354D01*
X132400354Y-103315853D01*
X132252784Y-103414456D01*
X132088812Y-103482376D01*
X131939512Y-103512073D01*
X131914742Y-103517000D01*
X131737258Y-103517000D01*
X131712488Y-103512073D01*
X131563188Y-103482376D01*
X131399216Y-103414456D01*
X131251646Y-103315853D01*
X131126147Y-103190354D01*
X131027544Y-103042784D01*
X130959624Y-102878812D01*
X130925000Y-102704741D01*
X130925000Y-102527259D01*
X130959624Y-102353188D01*
X131027544Y-102189216D01*
X131126147Y-102041646D01*
X131251646Y-101916147D01*
X131399216Y-101817544D01*
X131563188Y-101749624D01*
X131712488Y-101719927D01*
X131737258Y-101715000D01*
X131914742Y-101715000D01*
X131939512Y-101719927D01*
G37*
G36*
X137019512Y-101719927D02*
G01*
X137168812Y-101749624D01*
X137332784Y-101817544D01*
X137480354Y-101916147D01*
X137605853Y-102041646D01*
X137704456Y-102189216D01*
X137772376Y-102353188D01*
X137807000Y-102527259D01*
X137807000Y-102704741D01*
X137772376Y-102878812D01*
X137704456Y-103042784D01*
X137605853Y-103190354D01*
X137480354Y-103315853D01*
X137332784Y-103414456D01*
X137168812Y-103482376D01*
X137019512Y-103512073D01*
X136994742Y-103517000D01*
X136817258Y-103517000D01*
X136792488Y-103512073D01*
X136643188Y-103482376D01*
X136479216Y-103414456D01*
X136331646Y-103315853D01*
X136206147Y-103190354D01*
X136107544Y-103042784D01*
X136039624Y-102878812D01*
X136005000Y-102704741D01*
X136005000Y-102527259D01*
X136039624Y-102353188D01*
X136107544Y-102189216D01*
X136206147Y-102041646D01*
X136331646Y-101916147D01*
X136479216Y-101817544D01*
X136643188Y-101749624D01*
X136792488Y-101719927D01*
X136817258Y-101715000D01*
X136994742Y-101715000D01*
X137019512Y-101719927D01*
G37*
G36*
X127647000Y-103517000D02*
G01*
X125845000Y-103517000D01*
X125845000Y-101715000D01*
X127647000Y-101715000D01*
X127647000Y-103517000D01*
G37*
G36*
X134479512Y-101719927D02*
G01*
X134628812Y-101749624D01*
X134792784Y-101817544D01*
X134940354Y-101916147D01*
X135065853Y-102041646D01*
X135164456Y-102189216D01*
X135232376Y-102353188D01*
X135267000Y-102527259D01*
X135267000Y-102704741D01*
X135232376Y-102878812D01*
X135164456Y-103042784D01*
X135065853Y-103190354D01*
X134940354Y-103315853D01*
X134792784Y-103414456D01*
X134628812Y-103482376D01*
X134479512Y-103512073D01*
X134454742Y-103517000D01*
X134277258Y-103517000D01*
X134252488Y-103512073D01*
X134103188Y-103482376D01*
X133939216Y-103414456D01*
X133791646Y-103315853D01*
X133666147Y-103190354D01*
X133567544Y-103042784D01*
X133499624Y-102878812D01*
X133465000Y-102704741D01*
X133465000Y-102527259D01*
X133499624Y-102353188D01*
X133567544Y-102189216D01*
X133666147Y-102041646D01*
X133791646Y-101916147D01*
X133939216Y-101817544D01*
X134103188Y-101749624D01*
X134252488Y-101719927D01*
X134277258Y-101715000D01*
X134454742Y-101715000D01*
X134479512Y-101719927D01*
G37*
G36*
X129399512Y-101719927D02*
G01*
X129548812Y-101749624D01*
X129712784Y-101817544D01*
X129860354Y-101916147D01*
X129985853Y-102041646D01*
X130084456Y-102189216D01*
X130152376Y-102353188D01*
X130187000Y-102527259D01*
X130187000Y-102704741D01*
X130152376Y-102878812D01*
X130084456Y-103042784D01*
X129985853Y-103190354D01*
X129860354Y-103315853D01*
X129712784Y-103414456D01*
X129548812Y-103482376D01*
X129399512Y-103512073D01*
X129374742Y-103517000D01*
X129197258Y-103517000D01*
X129172488Y-103512073D01*
X129023188Y-103482376D01*
X128859216Y-103414456D01*
X128711646Y-103315853D01*
X128586147Y-103190354D01*
X128487544Y-103042784D01*
X128419624Y-102878812D01*
X128385000Y-102704741D01*
X128385000Y-102527259D01*
X128419624Y-102353188D01*
X128487544Y-102189216D01*
X128586147Y-102041646D01*
X128711646Y-101916147D01*
X128859216Y-101817544D01*
X129023188Y-101749624D01*
X129172488Y-101719927D01*
X129197258Y-101715000D01*
X129374742Y-101715000D01*
X129399512Y-101719927D01*
G37*
G36*
X119386604Y-102074347D02*
G01*
X119423144Y-102085432D01*
X119456821Y-102103433D01*
X119486341Y-102127659D01*
X119510567Y-102157179D01*
X119528568Y-102190856D01*
X119539653Y-102227396D01*
X119544000Y-102271538D01*
X119544000Y-103220462D01*
X119539653Y-103264604D01*
X119528568Y-103301144D01*
X119510567Y-103334821D01*
X119486341Y-103364341D01*
X119456821Y-103388567D01*
X119423144Y-103406568D01*
X119386604Y-103417653D01*
X119342462Y-103422000D01*
X117893538Y-103422000D01*
X117849396Y-103417653D01*
X117812856Y-103406568D01*
X117779179Y-103388567D01*
X117749659Y-103364341D01*
X117725433Y-103334821D01*
X117707432Y-103301144D01*
X117696347Y-103264604D01*
X117692000Y-103220462D01*
X117692000Y-102271538D01*
X117696347Y-102227396D01*
X117707432Y-102190856D01*
X117725433Y-102157179D01*
X117749659Y-102127659D01*
X117779179Y-102103433D01*
X117812856Y-102085432D01*
X117849396Y-102074347D01*
X117893538Y-102070000D01*
X119342462Y-102070000D01*
X119386604Y-102074347D01*
G37*
G36*
X142681000Y-103043000D02*
G01*
X140579000Y-103043000D01*
X140579000Y-99141000D01*
X142681000Y-99141000D01*
X142681000Y-103043000D01*
G37*
G36*
X114413512Y-100957927D02*
G01*
X114562812Y-100987624D01*
X114726784Y-101055544D01*
X114874354Y-101154147D01*
X114999853Y-101279646D01*
X115098456Y-101427216D01*
X115166376Y-101591188D01*
X115201000Y-101765259D01*
X115201000Y-101942741D01*
X115166376Y-102116812D01*
X115098456Y-102280784D01*
X114999853Y-102428354D01*
X114874354Y-102553853D01*
X114726784Y-102652456D01*
X114562812Y-102720376D01*
X114413512Y-102750073D01*
X114388742Y-102755000D01*
X114211258Y-102755000D01*
X114186488Y-102750073D01*
X114037188Y-102720376D01*
X113873216Y-102652456D01*
X113725646Y-102553853D01*
X113600147Y-102428354D01*
X113501544Y-102280784D01*
X113433624Y-102116812D01*
X113399000Y-101942741D01*
X113399000Y-101765259D01*
X113433624Y-101591188D01*
X113501544Y-101427216D01*
X113600147Y-101279646D01*
X113725646Y-101154147D01*
X113873216Y-101055544D01*
X114037188Y-100987624D01*
X114186488Y-100957927D01*
X114211258Y-100953000D01*
X114388742Y-100953000D01*
X114413512Y-100957927D01*
G37*
G36*
X121945000Y-102747000D02*
G01*
X120943000Y-102747000D01*
X120943000Y-101845000D01*
X121945000Y-101845000D01*
X121945000Y-102747000D01*
G37*
G36*
X148981000Y-101893000D02*
G01*
X146879000Y-101893000D01*
X146879000Y-100291000D01*
X148981000Y-100291000D01*
X148981000Y-101893000D01*
G37*
G36*
X123945000Y-101797000D02*
G01*
X122943000Y-101797000D01*
X122943000Y-100895000D01*
X123945000Y-100895000D01*
X123945000Y-101797000D01*
G37*
G36*
X131939512Y-99179927D02*
G01*
X132088812Y-99209624D01*
X132252784Y-99277544D01*
X132400354Y-99376147D01*
X132525853Y-99501646D01*
X132624456Y-99649216D01*
X132692376Y-99813188D01*
X132727000Y-99987259D01*
X132727000Y-100164741D01*
X132692376Y-100338812D01*
X132624456Y-100502784D01*
X132525853Y-100650354D01*
X132400354Y-100775853D01*
X132252784Y-100874456D01*
X132088812Y-100942376D01*
X131939512Y-100972073D01*
X131914742Y-100977000D01*
X131737258Y-100977000D01*
X131712488Y-100972073D01*
X131563188Y-100942376D01*
X131399216Y-100874456D01*
X131251646Y-100775853D01*
X131126147Y-100650354D01*
X131027544Y-100502784D01*
X130959624Y-100338812D01*
X130925000Y-100164741D01*
X130925000Y-99987259D01*
X130959624Y-99813188D01*
X131027544Y-99649216D01*
X131126147Y-99501646D01*
X131251646Y-99376147D01*
X131399216Y-99277544D01*
X131563188Y-99209624D01*
X131712488Y-99179927D01*
X131737258Y-99175000D01*
X131914742Y-99175000D01*
X131939512Y-99179927D01*
G37*
G36*
X126859512Y-99179927D02*
G01*
X127008812Y-99209624D01*
X127172784Y-99277544D01*
X127320354Y-99376147D01*
X127445853Y-99501646D01*
X127544456Y-99649216D01*
X127612376Y-99813188D01*
X127647000Y-99987259D01*
X127647000Y-100164741D01*
X127612376Y-100338812D01*
X127544456Y-100502784D01*
X127445853Y-100650354D01*
X127320354Y-100775853D01*
X127172784Y-100874456D01*
X127008812Y-100942376D01*
X126859512Y-100972073D01*
X126834742Y-100977000D01*
X126657258Y-100977000D01*
X126632488Y-100972073D01*
X126483188Y-100942376D01*
X126319216Y-100874456D01*
X126171646Y-100775853D01*
X126046147Y-100650354D01*
X125947544Y-100502784D01*
X125879624Y-100338812D01*
X125845000Y-100164741D01*
X125845000Y-99987259D01*
X125879624Y-99813188D01*
X125947544Y-99649216D01*
X126046147Y-99501646D01*
X126171646Y-99376147D01*
X126319216Y-99277544D01*
X126483188Y-99209624D01*
X126632488Y-99179927D01*
X126657258Y-99175000D01*
X126834742Y-99175000D01*
X126859512Y-99179927D01*
G37*
G36*
X129399512Y-99179927D02*
G01*
X129548812Y-99209624D01*
X129712784Y-99277544D01*
X129860354Y-99376147D01*
X129985853Y-99501646D01*
X130084456Y-99649216D01*
X130152376Y-99813188D01*
X130187000Y-99987259D01*
X130187000Y-100164741D01*
X130152376Y-100338812D01*
X130084456Y-100502784D01*
X129985853Y-100650354D01*
X129860354Y-100775853D01*
X129712784Y-100874456D01*
X129548812Y-100942376D01*
X129399512Y-100972073D01*
X129374742Y-100977000D01*
X129197258Y-100977000D01*
X129172488Y-100972073D01*
X129023188Y-100942376D01*
X128859216Y-100874456D01*
X128711646Y-100775853D01*
X128586147Y-100650354D01*
X128487544Y-100502784D01*
X128419624Y-100338812D01*
X128385000Y-100164741D01*
X128385000Y-99987259D01*
X128419624Y-99813188D01*
X128487544Y-99649216D01*
X128586147Y-99501646D01*
X128711646Y-99376147D01*
X128859216Y-99277544D01*
X129023188Y-99209624D01*
X129172488Y-99179927D01*
X129197258Y-99175000D01*
X129374742Y-99175000D01*
X129399512Y-99179927D01*
G37*
G36*
X137019512Y-99179927D02*
G01*
X137168812Y-99209624D01*
X137332784Y-99277544D01*
X137480354Y-99376147D01*
X137605853Y-99501646D01*
X137704456Y-99649216D01*
X137772376Y-99813188D01*
X137807000Y-99987259D01*
X137807000Y-100164741D01*
X137772376Y-100338812D01*
X137704456Y-100502784D01*
X137605853Y-100650354D01*
X137480354Y-100775853D01*
X137332784Y-100874456D01*
X137168812Y-100942376D01*
X137019512Y-100972073D01*
X136994742Y-100977000D01*
X136817258Y-100977000D01*
X136792488Y-100972073D01*
X136643188Y-100942376D01*
X136479216Y-100874456D01*
X136331646Y-100775853D01*
X136206147Y-100650354D01*
X136107544Y-100502784D01*
X136039624Y-100338812D01*
X136005000Y-100164741D01*
X136005000Y-99987259D01*
X136039624Y-99813188D01*
X136107544Y-99649216D01*
X136206147Y-99501646D01*
X136331646Y-99376147D01*
X136479216Y-99277544D01*
X136643188Y-99209624D01*
X136792488Y-99179927D01*
X136817258Y-99175000D01*
X136994742Y-99175000D01*
X137019512Y-99179927D01*
G37*
G36*
X134479512Y-99179927D02*
G01*
X134628812Y-99209624D01*
X134792784Y-99277544D01*
X134940354Y-99376147D01*
X135065853Y-99501646D01*
X135164456Y-99649216D01*
X135232376Y-99813188D01*
X135267000Y-99987259D01*
X135267000Y-100164741D01*
X135232376Y-100338812D01*
X135164456Y-100502784D01*
X135065853Y-100650354D01*
X134940354Y-100775853D01*
X134792784Y-100874456D01*
X134628812Y-100942376D01*
X134479512Y-100972073D01*
X134454742Y-100977000D01*
X134277258Y-100977000D01*
X134252488Y-100972073D01*
X134103188Y-100942376D01*
X133939216Y-100874456D01*
X133791646Y-100775853D01*
X133666147Y-100650354D01*
X133567544Y-100502784D01*
X133499624Y-100338812D01*
X133465000Y-100164741D01*
X133465000Y-99987259D01*
X133499624Y-99813188D01*
X133567544Y-99649216D01*
X133666147Y-99501646D01*
X133791646Y-99376147D01*
X133939216Y-99277544D01*
X134103188Y-99209624D01*
X134252488Y-99179927D01*
X134277258Y-99175000D01*
X134454742Y-99175000D01*
X134479512Y-99179927D01*
G37*
G36*
X121945000Y-100847000D02*
G01*
X120943000Y-100847000D01*
X120943000Y-99945000D01*
X121945000Y-99945000D01*
X121945000Y-100847000D01*
G37*
G36*
X119386604Y-99274347D02*
G01*
X119423144Y-99285432D01*
X119456821Y-99303433D01*
X119486341Y-99327659D01*
X119510567Y-99357179D01*
X119528568Y-99390856D01*
X119539653Y-99427396D01*
X119544000Y-99471538D01*
X119544000Y-100420462D01*
X119539653Y-100464604D01*
X119528568Y-100501144D01*
X119510567Y-100534821D01*
X119486341Y-100564341D01*
X119456821Y-100588567D01*
X119423144Y-100606568D01*
X119386604Y-100617653D01*
X119342462Y-100622000D01*
X117893538Y-100622000D01*
X117849396Y-100617653D01*
X117812856Y-100606568D01*
X117779179Y-100588567D01*
X117749659Y-100564341D01*
X117725433Y-100534821D01*
X117707432Y-100501144D01*
X117696347Y-100464604D01*
X117692000Y-100420462D01*
X117692000Y-99471538D01*
X117696347Y-99427396D01*
X117707432Y-99390856D01*
X117725433Y-99357179D01*
X117749659Y-99327659D01*
X117779179Y-99303433D01*
X117812856Y-99285432D01*
X117849396Y-99274347D01*
X117893538Y-99270000D01*
X119342462Y-99270000D01*
X119386604Y-99274347D01*
G37*
G36*
X115201000Y-100215000D02*
G01*
X113399000Y-100215000D01*
X113399000Y-98413000D01*
X115201000Y-98413000D01*
X115201000Y-100215000D01*
G37*
G36*
X148981000Y-99593000D02*
G01*
X146879000Y-99593000D01*
X146879000Y-97991000D01*
X148981000Y-97991000D01*
X148981000Y-99593000D01*
G37*
G36*
X122180604Y-95346347D02*
G01*
X122217144Y-95357432D01*
X122250821Y-95375433D01*
X122280341Y-95399659D01*
X122304567Y-95429179D01*
X122322568Y-95462856D01*
X122333653Y-95499396D01*
X122338000Y-95543538D01*
X122338000Y-96492462D01*
X122333653Y-96536604D01*
X122322568Y-96573144D01*
X122304567Y-96606821D01*
X122280341Y-96636341D01*
X122250821Y-96660567D01*
X122217144Y-96678568D01*
X122180604Y-96689653D01*
X122136462Y-96694000D01*
X120687538Y-96694000D01*
X120643396Y-96689653D01*
X120606856Y-96678568D01*
X120573179Y-96660567D01*
X120543659Y-96636341D01*
X120519433Y-96606821D01*
X120501432Y-96573144D01*
X120490347Y-96536604D01*
X120486000Y-96492462D01*
X120486000Y-95543538D01*
X120490347Y-95499396D01*
X120501432Y-95462856D01*
X120519433Y-95429179D01*
X120543659Y-95399659D01*
X120573179Y-95375433D01*
X120606856Y-95357432D01*
X120643396Y-95346347D01*
X120687538Y-95342000D01*
X122136462Y-95342000D01*
X122180604Y-95346347D01*
G37*
G36*
X138543512Y-94099927D02*
G01*
X138692812Y-94129624D01*
X138856784Y-94197544D01*
X139004354Y-94296147D01*
X139129853Y-94421646D01*
X139228456Y-94569216D01*
X139296376Y-94733188D01*
X139331000Y-94907259D01*
X139331000Y-95084741D01*
X139296376Y-95258812D01*
X139228456Y-95422784D01*
X139129853Y-95570354D01*
X139004354Y-95695853D01*
X138856784Y-95794456D01*
X138692812Y-95862376D01*
X138543512Y-95892073D01*
X138518742Y-95897000D01*
X138341258Y-95897000D01*
X138316488Y-95892073D01*
X138167188Y-95862376D01*
X138003216Y-95794456D01*
X137855646Y-95695853D01*
X137730147Y-95570354D01*
X137631544Y-95422784D01*
X137563624Y-95258812D01*
X137529000Y-95084741D01*
X137529000Y-94907259D01*
X137563624Y-94733188D01*
X137631544Y-94569216D01*
X137730147Y-94421646D01*
X137855646Y-94296147D01*
X138003216Y-94197544D01*
X138167188Y-94129624D01*
X138316488Y-94099927D01*
X138341258Y-94095000D01*
X138518742Y-94095000D01*
X138543512Y-94099927D01*
G37*
G36*
X136003512Y-94099927D02*
G01*
X136152812Y-94129624D01*
X136316784Y-94197544D01*
X136464354Y-94296147D01*
X136589853Y-94421646D01*
X136688456Y-94569216D01*
X136756376Y-94733188D01*
X136791000Y-94907259D01*
X136791000Y-95084741D01*
X136756376Y-95258812D01*
X136688456Y-95422784D01*
X136589853Y-95570354D01*
X136464354Y-95695853D01*
X136316784Y-95794456D01*
X136152812Y-95862376D01*
X136003512Y-95892073D01*
X135978742Y-95897000D01*
X135801258Y-95897000D01*
X135776488Y-95892073D01*
X135627188Y-95862376D01*
X135463216Y-95794456D01*
X135315646Y-95695853D01*
X135190147Y-95570354D01*
X135091544Y-95422784D01*
X135023624Y-95258812D01*
X134989000Y-95084741D01*
X134989000Y-94907259D01*
X135023624Y-94733188D01*
X135091544Y-94569216D01*
X135190147Y-94421646D01*
X135315646Y-94296147D01*
X135463216Y-94197544D01*
X135627188Y-94129624D01*
X135776488Y-94099927D01*
X135801258Y-94095000D01*
X135978742Y-94095000D01*
X136003512Y-94099927D01*
G37*
G36*
X126631000Y-95897000D02*
G01*
X124829000Y-95897000D01*
X124829000Y-94095000D01*
X126631000Y-94095000D01*
X126631000Y-95897000D01*
G37*
G36*
X128383512Y-94099927D02*
G01*
X128532812Y-94129624D01*
X128696784Y-94197544D01*
X128844354Y-94296147D01*
X128969853Y-94421646D01*
X129068456Y-94569216D01*
X129136376Y-94733188D01*
X129171000Y-94907259D01*
X129171000Y-95084741D01*
X129136376Y-95258812D01*
X129068456Y-95422784D01*
X128969853Y-95570354D01*
X128844354Y-95695853D01*
X128696784Y-95794456D01*
X128532812Y-95862376D01*
X128383512Y-95892073D01*
X128358742Y-95897000D01*
X128181258Y-95897000D01*
X128156488Y-95892073D01*
X128007188Y-95862376D01*
X127843216Y-95794456D01*
X127695646Y-95695853D01*
X127570147Y-95570354D01*
X127471544Y-95422784D01*
X127403624Y-95258812D01*
X127369000Y-95084741D01*
X127369000Y-94907259D01*
X127403624Y-94733188D01*
X127471544Y-94569216D01*
X127570147Y-94421646D01*
X127695646Y-94296147D01*
X127843216Y-94197544D01*
X128007188Y-94129624D01*
X128156488Y-94099927D01*
X128181258Y-94095000D01*
X128358742Y-94095000D01*
X128383512Y-94099927D01*
G37*
G36*
X130923512Y-94099927D02*
G01*
X131072812Y-94129624D01*
X131236784Y-94197544D01*
X131384354Y-94296147D01*
X131509853Y-94421646D01*
X131608456Y-94569216D01*
X131676376Y-94733188D01*
X131711000Y-94907259D01*
X131711000Y-95084741D01*
X131676376Y-95258812D01*
X131608456Y-95422784D01*
X131509853Y-95570354D01*
X131384354Y-95695853D01*
X131236784Y-95794456D01*
X131072812Y-95862376D01*
X130923512Y-95892073D01*
X130898742Y-95897000D01*
X130721258Y-95897000D01*
X130696488Y-95892073D01*
X130547188Y-95862376D01*
X130383216Y-95794456D01*
X130235646Y-95695853D01*
X130110147Y-95570354D01*
X130011544Y-95422784D01*
X129943624Y-95258812D01*
X129909000Y-95084741D01*
X129909000Y-94907259D01*
X129943624Y-94733188D01*
X130011544Y-94569216D01*
X130110147Y-94421646D01*
X130235646Y-94296147D01*
X130383216Y-94197544D01*
X130547188Y-94129624D01*
X130696488Y-94099927D01*
X130721258Y-94095000D01*
X130898742Y-94095000D01*
X130923512Y-94099927D01*
G37*
G36*
X133463512Y-94099927D02*
G01*
X133612812Y-94129624D01*
X133776784Y-94197544D01*
X133924354Y-94296147D01*
X134049853Y-94421646D01*
X134148456Y-94569216D01*
X134216376Y-94733188D01*
X134251000Y-94907259D01*
X134251000Y-95084741D01*
X134216376Y-95258812D01*
X134148456Y-95422784D01*
X134049853Y-95570354D01*
X133924354Y-95695853D01*
X133776784Y-95794456D01*
X133612812Y-95862376D01*
X133463512Y-95892073D01*
X133438742Y-95897000D01*
X133261258Y-95897000D01*
X133236488Y-95892073D01*
X133087188Y-95862376D01*
X132923216Y-95794456D01*
X132775646Y-95695853D01*
X132650147Y-95570354D01*
X132551544Y-95422784D01*
X132483624Y-95258812D01*
X132449000Y-95084741D01*
X132449000Y-94907259D01*
X132483624Y-94733188D01*
X132551544Y-94569216D01*
X132650147Y-94421646D01*
X132775646Y-94296147D01*
X132923216Y-94197544D01*
X133087188Y-94129624D01*
X133236488Y-94099927D01*
X133261258Y-94095000D01*
X133438742Y-94095000D01*
X133463512Y-94099927D01*
G37*
G36*
X141083512Y-94099927D02*
G01*
X141232812Y-94129624D01*
X141396784Y-94197544D01*
X141544354Y-94296147D01*
X141669853Y-94421646D01*
X141768456Y-94569216D01*
X141836376Y-94733188D01*
X141871000Y-94907259D01*
X141871000Y-95084741D01*
X141836376Y-95258812D01*
X141768456Y-95422784D01*
X141669853Y-95570354D01*
X141544354Y-95695853D01*
X141396784Y-95794456D01*
X141232812Y-95862376D01*
X141083512Y-95892073D01*
X141058742Y-95897000D01*
X140881258Y-95897000D01*
X140856488Y-95892073D01*
X140707188Y-95862376D01*
X140543216Y-95794456D01*
X140395646Y-95695853D01*
X140270147Y-95570354D01*
X140171544Y-95422784D01*
X140103624Y-95258812D01*
X140069000Y-95084741D01*
X140069000Y-94907259D01*
X140103624Y-94733188D01*
X140171544Y-94569216D01*
X140270147Y-94421646D01*
X140395646Y-94296147D01*
X140543216Y-94197544D01*
X140707188Y-94129624D01*
X140856488Y-94099927D01*
X140881258Y-94095000D01*
X141058742Y-94095000D01*
X141083512Y-94099927D01*
G37*
G36*
X122180604Y-92546347D02*
G01*
X122217144Y-92557432D01*
X122250821Y-92575433D01*
X122280341Y-92599659D01*
X122304567Y-92629179D01*
X122322568Y-92662856D01*
X122333653Y-92699396D01*
X122338000Y-92743538D01*
X122338000Y-93692462D01*
X122333653Y-93736604D01*
X122322568Y-93773144D01*
X122304567Y-93806821D01*
X122280341Y-93836341D01*
X122250821Y-93860567D01*
X122217144Y-93878568D01*
X122180604Y-93889653D01*
X122136462Y-93894000D01*
X120687538Y-93894000D01*
X120643396Y-93889653D01*
X120606856Y-93878568D01*
X120573179Y-93860567D01*
X120543659Y-93836341D01*
X120519433Y-93806821D01*
X120501432Y-93773144D01*
X120490347Y-93736604D01*
X120486000Y-93692462D01*
X120486000Y-92743538D01*
X120490347Y-92699396D01*
X120501432Y-92662856D01*
X120519433Y-92629179D01*
X120543659Y-92599659D01*
X120573179Y-92575433D01*
X120606856Y-92557432D01*
X120643396Y-92546347D01*
X120687538Y-92542000D01*
X122136462Y-92542000D01*
X122180604Y-92546347D01*
G37*
G36*
X150671997Y-92117051D02*
G01*
X150705652Y-92127261D01*
X150736665Y-92143838D01*
X150763851Y-92166149D01*
X150786162Y-92193335D01*
X150802739Y-92224348D01*
X150812949Y-92258003D01*
X150817000Y-92299138D01*
X150817000Y-93628862D01*
X150812949Y-93669997D01*
X150802739Y-93703652D01*
X150786162Y-93734665D01*
X150763851Y-93761851D01*
X150736665Y-93784162D01*
X150705652Y-93800739D01*
X150671997Y-93810949D01*
X150630862Y-93815000D01*
X147901138Y-93815000D01*
X147860003Y-93810949D01*
X147826348Y-93800739D01*
X147795335Y-93784162D01*
X147768149Y-93761851D01*
X147745838Y-93734665D01*
X147729261Y-93703652D01*
X147719051Y-93669997D01*
X147715000Y-93628862D01*
X147715000Y-92299138D01*
X147719051Y-92258003D01*
X147729261Y-92224348D01*
X147745838Y-92193335D01*
X147768149Y-92166149D01*
X147795335Y-92143838D01*
X147826348Y-92127261D01*
X147860003Y-92117051D01*
X147901138Y-92113000D01*
X150630862Y-92113000D01*
X150671997Y-92117051D01*
G37*
G36*
X146271997Y-92117051D02*
G01*
X146305652Y-92127261D01*
X146336665Y-92143838D01*
X146363851Y-92166149D01*
X146386162Y-92193335D01*
X146402739Y-92224348D01*
X146412949Y-92258003D01*
X146417000Y-92299138D01*
X146417000Y-93628862D01*
X146412949Y-93669997D01*
X146402739Y-93703652D01*
X146386162Y-93734665D01*
X146363851Y-93761851D01*
X146336665Y-93784162D01*
X146305652Y-93800739D01*
X146271997Y-93810949D01*
X146230862Y-93815000D01*
X143501138Y-93815000D01*
X143460003Y-93810949D01*
X143426348Y-93800739D01*
X143395335Y-93784162D01*
X143368149Y-93761851D01*
X143345838Y-93734665D01*
X143329261Y-93703652D01*
X143319051Y-93669997D01*
X143315000Y-93628862D01*
X143315000Y-92299138D01*
X143319051Y-92258003D01*
X143329261Y-92224348D01*
X143345838Y-92193335D01*
X143368149Y-92166149D01*
X143395335Y-92143838D01*
X143426348Y-92127261D01*
X143460003Y-92117051D01*
X143501138Y-92113000D01*
X146230862Y-92113000D01*
X146271997Y-92117051D01*
G37*
G36*
X116902591Y-90664085D02*
G01*
X116936569Y-90674393D01*
X116967890Y-90691134D01*
X116995339Y-90713661D01*
X117017866Y-90741110D01*
X117034607Y-90772431D01*
X117044915Y-90806409D01*
X117049000Y-90847890D01*
X117049000Y-91524110D01*
X117044915Y-91565591D01*
X117034607Y-91599569D01*
X117017866Y-91630890D01*
X116995339Y-91658339D01*
X116967890Y-91680866D01*
X116936569Y-91697607D01*
X116902591Y-91707915D01*
X116861110Y-91712000D01*
X116259890Y-91712000D01*
X116218409Y-91707915D01*
X116184431Y-91697607D01*
X116153110Y-91680866D01*
X116125661Y-91658339D01*
X116103134Y-91630890D01*
X116086393Y-91599569D01*
X116076085Y-91565591D01*
X116072000Y-91524110D01*
X116072000Y-90847890D01*
X116076085Y-90806409D01*
X116086393Y-90772431D01*
X116103134Y-90741110D01*
X116125661Y-90713661D01*
X116153110Y-90691134D01*
X116184431Y-90674393D01*
X116218409Y-90664085D01*
X116259890Y-90660000D01*
X116861110Y-90660000D01*
X116902591Y-90664085D01*
G37*
G36*
X118477591Y-90664085D02*
G01*
X118511569Y-90674393D01*
X118542890Y-90691134D01*
X118570339Y-90713661D01*
X118592866Y-90741110D01*
X118609607Y-90772431D01*
X118619915Y-90806409D01*
X118624000Y-90847890D01*
X118624000Y-91524110D01*
X118619915Y-91565591D01*
X118609607Y-91599569D01*
X118592866Y-91630890D01*
X118570339Y-91658339D01*
X118542890Y-91680866D01*
X118511569Y-91697607D01*
X118477591Y-91707915D01*
X118436110Y-91712000D01*
X117834890Y-91712000D01*
X117793409Y-91707915D01*
X117759431Y-91697607D01*
X117728110Y-91680866D01*
X117700661Y-91658339D01*
X117678134Y-91630890D01*
X117661393Y-91599569D01*
X117651085Y-91565591D01*
X117647000Y-91524110D01*
X117647000Y-90847890D01*
X117651085Y-90806409D01*
X117661393Y-90772431D01*
X117678134Y-90741110D01*
X117700661Y-90713661D01*
X117728110Y-90691134D01*
X117759431Y-90674393D01*
X117793409Y-90664085D01*
X117834890Y-90660000D01*
X118436110Y-90660000D01*
X118477591Y-90664085D01*
G37*
G36*
X143520604Y-88290347D02*
G01*
X143557144Y-88301432D01*
X143590821Y-88319433D01*
X143620341Y-88343659D01*
X143644567Y-88373179D01*
X143662568Y-88406856D01*
X143673653Y-88443396D01*
X143678000Y-88487538D01*
X143678000Y-90836462D01*
X143673653Y-90880604D01*
X143662568Y-90917144D01*
X143644567Y-90950821D01*
X143620341Y-90980341D01*
X143590821Y-91004567D01*
X143557144Y-91022568D01*
X143520604Y-91033653D01*
X143476462Y-91038000D01*
X142527538Y-91038000D01*
X142483396Y-91033653D01*
X142446856Y-91022568D01*
X142413179Y-91004567D01*
X142383659Y-90980341D01*
X142359433Y-90950821D01*
X142341432Y-90917144D01*
X142330347Y-90880604D01*
X142326000Y-90836462D01*
X142326000Y-88487538D01*
X142330347Y-88443396D01*
X142341432Y-88406856D01*
X142359433Y-88373179D01*
X142383659Y-88343659D01*
X142413179Y-88319433D01*
X142446856Y-88301432D01*
X142483396Y-88290347D01*
X142527538Y-88286000D01*
X143476462Y-88286000D01*
X143520604Y-88290347D01*
G37*
G36*
X140720604Y-88290347D02*
G01*
X140757144Y-88301432D01*
X140790821Y-88319433D01*
X140820341Y-88343659D01*
X140844567Y-88373179D01*
X140862568Y-88406856D01*
X140873653Y-88443396D01*
X140878000Y-88487538D01*
X140878000Y-90836462D01*
X140873653Y-90880604D01*
X140862568Y-90917144D01*
X140844567Y-90950821D01*
X140820341Y-90980341D01*
X140790821Y-91004567D01*
X140757144Y-91022568D01*
X140720604Y-91033653D01*
X140676462Y-91038000D01*
X139727538Y-91038000D01*
X139683396Y-91033653D01*
X139646856Y-91022568D01*
X139613179Y-91004567D01*
X139583659Y-90980341D01*
X139559433Y-90950821D01*
X139541432Y-90917144D01*
X139530347Y-90880604D01*
X139526000Y-90836462D01*
X139526000Y-88487538D01*
X139530347Y-88443396D01*
X139541432Y-88406856D01*
X139559433Y-88373179D01*
X139583659Y-88343659D01*
X139613179Y-88319433D01*
X139646856Y-88301432D01*
X139683396Y-88290347D01*
X139727538Y-88286000D01*
X140676462Y-88286000D01*
X140720604Y-88290347D01*
G37*
G36*
X130380000Y-90953000D02*
G01*
X124128000Y-90953000D01*
X124128000Y-89251000D01*
X130380000Y-89251000D01*
X130380000Y-90953000D01*
G37*
G36*
X119103000Y-89989000D02*
G01*
X117801000Y-89989000D01*
X117801000Y-88487000D01*
X119103000Y-88487000D01*
X119103000Y-89989000D01*
G37*
G36*
X117403000Y-89989000D02*
G01*
X116101000Y-89989000D01*
X116101000Y-88487000D01*
X117403000Y-88487000D01*
X117403000Y-89989000D01*
G37*
G36*
X135646604Y-87978347D02*
G01*
X135683144Y-87989432D01*
X135716821Y-88007433D01*
X135746341Y-88031659D01*
X135770567Y-88061179D01*
X135788568Y-88094856D01*
X135799653Y-88131396D01*
X135804000Y-88175538D01*
X135804000Y-89624462D01*
X135799653Y-89668604D01*
X135788568Y-89705144D01*
X135770567Y-89738821D01*
X135746341Y-89768341D01*
X135716821Y-89792567D01*
X135683144Y-89810568D01*
X135646604Y-89821653D01*
X135602462Y-89826000D01*
X134653538Y-89826000D01*
X134609396Y-89821653D01*
X134572856Y-89810568D01*
X134539179Y-89792567D01*
X134509659Y-89768341D01*
X134485433Y-89738821D01*
X134467432Y-89705144D01*
X134456347Y-89668604D01*
X134452000Y-89624462D01*
X134452000Y-88175538D01*
X134456347Y-88131396D01*
X134467432Y-88094856D01*
X134485433Y-88061179D01*
X134509659Y-88031659D01*
X134539179Y-88007433D01*
X134572856Y-87989432D01*
X134609396Y-87978347D01*
X134653538Y-87974000D01*
X135602462Y-87974000D01*
X135646604Y-87978347D01*
G37*
G36*
X138446604Y-87978347D02*
G01*
X138483144Y-87989432D01*
X138516821Y-88007433D01*
X138546341Y-88031659D01*
X138570567Y-88061179D01*
X138588568Y-88094856D01*
X138599653Y-88131396D01*
X138604000Y-88175538D01*
X138604000Y-89624462D01*
X138599653Y-89668604D01*
X138588568Y-89705144D01*
X138570567Y-89738821D01*
X138546341Y-89768341D01*
X138516821Y-89792567D01*
X138483144Y-89810568D01*
X138446604Y-89821653D01*
X138402462Y-89826000D01*
X137453538Y-89826000D01*
X137409396Y-89821653D01*
X137372856Y-89810568D01*
X137339179Y-89792567D01*
X137309659Y-89768341D01*
X137285433Y-89738821D01*
X137267432Y-89705144D01*
X137256347Y-89668604D01*
X137252000Y-89624462D01*
X137252000Y-88175538D01*
X137256347Y-88131396D01*
X137267432Y-88094856D01*
X137285433Y-88061179D01*
X137309659Y-88031659D01*
X137339179Y-88007433D01*
X137372856Y-87989432D01*
X137409396Y-87978347D01*
X137453538Y-87974000D01*
X138402462Y-87974000D01*
X138446604Y-87978347D01*
G37*
G36*
X132355000Y-88978000D02*
G01*
X130653000Y-88978000D01*
X130653000Y-82726000D01*
X132355000Y-82726000D01*
X132355000Y-88978000D01*
G37*
G36*
X123855000Y-88978000D02*
G01*
X122153000Y-88978000D01*
X122153000Y-82726000D01*
X123855000Y-82726000D01*
X123855000Y-88978000D01*
G37*
G36*
X147459000Y-88023000D02*
G01*
X145657000Y-88023000D01*
X145657000Y-86221000D01*
X147459000Y-86221000D01*
X147459000Y-88023000D01*
G37*
G36*
X119103000Y-87789000D02*
G01*
X117801000Y-87789000D01*
X117801000Y-86287000D01*
X119103000Y-86287000D01*
X119103000Y-87789000D01*
G37*
G36*
X117403000Y-87789000D02*
G01*
X116101000Y-87789000D01*
X116101000Y-86287000D01*
X117403000Y-86287000D01*
X117403000Y-87789000D01*
G37*
G36*
X143520604Y-83972347D02*
G01*
X143557144Y-83983432D01*
X143590821Y-84001433D01*
X143620341Y-84025659D01*
X143644567Y-84055179D01*
X143662568Y-84088856D01*
X143673653Y-84125396D01*
X143678000Y-84169538D01*
X143678000Y-86518462D01*
X143673653Y-86562604D01*
X143662568Y-86599144D01*
X143644567Y-86632821D01*
X143620341Y-86662341D01*
X143590821Y-86686567D01*
X143557144Y-86704568D01*
X143520604Y-86715653D01*
X143476462Y-86720000D01*
X142527538Y-86720000D01*
X142483396Y-86715653D01*
X142446856Y-86704568D01*
X142413179Y-86686567D01*
X142383659Y-86662341D01*
X142359433Y-86632821D01*
X142341432Y-86599144D01*
X142330347Y-86562604D01*
X142326000Y-86518462D01*
X142326000Y-84169538D01*
X142330347Y-84125396D01*
X142341432Y-84088856D01*
X142359433Y-84055179D01*
X142383659Y-84025659D01*
X142413179Y-84001433D01*
X142446856Y-83983432D01*
X142483396Y-83972347D01*
X142527538Y-83968000D01*
X143476462Y-83968000D01*
X143520604Y-83972347D01*
G37*
G36*
X140720604Y-83972347D02*
G01*
X140757144Y-83983432D01*
X140790821Y-84001433D01*
X140820341Y-84025659D01*
X140844567Y-84055179D01*
X140862568Y-84088856D01*
X140873653Y-84125396D01*
X140878000Y-84169538D01*
X140878000Y-86518462D01*
X140873653Y-86562604D01*
X140862568Y-86599144D01*
X140844567Y-86632821D01*
X140820341Y-86662341D01*
X140790821Y-86686567D01*
X140757144Y-86704568D01*
X140720604Y-86715653D01*
X140676462Y-86720000D01*
X139727538Y-86720000D01*
X139683396Y-86715653D01*
X139646856Y-86704568D01*
X139613179Y-86686567D01*
X139583659Y-86662341D01*
X139559433Y-86632821D01*
X139541432Y-86599144D01*
X139530347Y-86562604D01*
X139526000Y-86518462D01*
X139526000Y-84169538D01*
X139530347Y-84125396D01*
X139541432Y-84088856D01*
X139559433Y-84055179D01*
X139583659Y-84025659D01*
X139613179Y-84001433D01*
X139646856Y-83983432D01*
X139683396Y-83972347D01*
X139727538Y-83968000D01*
X140676462Y-83968000D01*
X140720604Y-83972347D01*
G37*
G36*
X135646604Y-84422347D02*
G01*
X135683144Y-84433432D01*
X135716821Y-84451433D01*
X135746341Y-84475659D01*
X135770567Y-84505179D01*
X135788568Y-84538856D01*
X135799653Y-84575396D01*
X135804000Y-84619538D01*
X135804000Y-86068462D01*
X135799653Y-86112604D01*
X135788568Y-86149144D01*
X135770567Y-86182821D01*
X135746341Y-86212341D01*
X135716821Y-86236567D01*
X135683144Y-86254568D01*
X135646604Y-86265653D01*
X135602462Y-86270000D01*
X134653538Y-86270000D01*
X134609396Y-86265653D01*
X134572856Y-86254568D01*
X134539179Y-86236567D01*
X134509659Y-86212341D01*
X134485433Y-86182821D01*
X134467432Y-86149144D01*
X134456347Y-86112604D01*
X134452000Y-86068462D01*
X134452000Y-84619538D01*
X134456347Y-84575396D01*
X134467432Y-84538856D01*
X134485433Y-84505179D01*
X134509659Y-84475659D01*
X134539179Y-84451433D01*
X134572856Y-84433432D01*
X134609396Y-84422347D01*
X134653538Y-84418000D01*
X135602462Y-84418000D01*
X135646604Y-84422347D01*
G37*
G36*
X138446604Y-84422347D02*
G01*
X138483144Y-84433432D01*
X138516821Y-84451433D01*
X138546341Y-84475659D01*
X138570567Y-84505179D01*
X138588568Y-84538856D01*
X138599653Y-84575396D01*
X138604000Y-84619538D01*
X138604000Y-86068462D01*
X138599653Y-86112604D01*
X138588568Y-86149144D01*
X138570567Y-86182821D01*
X138546341Y-86212341D01*
X138516821Y-86236567D01*
X138483144Y-86254568D01*
X138446604Y-86265653D01*
X138402462Y-86270000D01*
X137453538Y-86270000D01*
X137409396Y-86265653D01*
X137372856Y-86254568D01*
X137339179Y-86236567D01*
X137309659Y-86212341D01*
X137285433Y-86182821D01*
X137267432Y-86149144D01*
X137256347Y-86112604D01*
X137252000Y-86068462D01*
X137252000Y-84619538D01*
X137256347Y-84575396D01*
X137267432Y-84538856D01*
X137285433Y-84505179D01*
X137309659Y-84475659D01*
X137339179Y-84451433D01*
X137372856Y-84433432D01*
X137409396Y-84422347D01*
X137453538Y-84418000D01*
X138402462Y-84418000D01*
X138446604Y-84422347D01*
G37*
G36*
X116902591Y-84568085D02*
G01*
X116936569Y-84578393D01*
X116967890Y-84595134D01*
X116995339Y-84617661D01*
X117017866Y-84645110D01*
X117034607Y-84676431D01*
X117044915Y-84710409D01*
X117049000Y-84751890D01*
X117049000Y-85428110D01*
X117044915Y-85469591D01*
X117034607Y-85503569D01*
X117017866Y-85534890D01*
X116995339Y-85562339D01*
X116967890Y-85584866D01*
X116936569Y-85601607D01*
X116902591Y-85611915D01*
X116861110Y-85616000D01*
X116259890Y-85616000D01*
X116218409Y-85611915D01*
X116184431Y-85601607D01*
X116153110Y-85584866D01*
X116125661Y-85562339D01*
X116103134Y-85534890D01*
X116086393Y-85503569D01*
X116076085Y-85469591D01*
X116072000Y-85428110D01*
X116072000Y-84751890D01*
X116076085Y-84710409D01*
X116086393Y-84676431D01*
X116103134Y-84645110D01*
X116125661Y-84617661D01*
X116153110Y-84595134D01*
X116184431Y-84578393D01*
X116218409Y-84568085D01*
X116259890Y-84564000D01*
X116861110Y-84564000D01*
X116902591Y-84568085D01*
G37*
G36*
X118477591Y-84568085D02*
G01*
X118511569Y-84578393D01*
X118542890Y-84595134D01*
X118570339Y-84617661D01*
X118592866Y-84645110D01*
X118609607Y-84676431D01*
X118619915Y-84710409D01*
X118624000Y-84751890D01*
X118624000Y-85428110D01*
X118619915Y-85469591D01*
X118609607Y-85503569D01*
X118592866Y-85534890D01*
X118570339Y-85562339D01*
X118542890Y-85584866D01*
X118511569Y-85601607D01*
X118477591Y-85611915D01*
X118436110Y-85616000D01*
X117834890Y-85616000D01*
X117793409Y-85611915D01*
X117759431Y-85601607D01*
X117728110Y-85584866D01*
X117700661Y-85562339D01*
X117678134Y-85534890D01*
X117661393Y-85503569D01*
X117651085Y-85469591D01*
X117647000Y-85428110D01*
X117647000Y-84751890D01*
X117651085Y-84710409D01*
X117661393Y-84676431D01*
X117678134Y-84645110D01*
X117700661Y-84617661D01*
X117728110Y-84595134D01*
X117759431Y-84578393D01*
X117793409Y-84568085D01*
X117834890Y-84564000D01*
X118436110Y-84564000D01*
X118477591Y-84568085D01*
G37*
G36*
X146671512Y-83685927D02*
G01*
X146820812Y-83715624D01*
X146984784Y-83783544D01*
X147132354Y-83882147D01*
X147257853Y-84007646D01*
X147356456Y-84155216D01*
X147424376Y-84319188D01*
X147453095Y-84463571D01*
X147459000Y-84493258D01*
X147459000Y-84670742D01*
X147454073Y-84695512D01*
X147424376Y-84844812D01*
X147356456Y-85008784D01*
X147257853Y-85156354D01*
X147132354Y-85281853D01*
X146984784Y-85380456D01*
X146820812Y-85448376D01*
X146671512Y-85478073D01*
X146646742Y-85483000D01*
X146469258Y-85483000D01*
X146444488Y-85478073D01*
X146295188Y-85448376D01*
X146131216Y-85380456D01*
X145983646Y-85281853D01*
X145858147Y-85156354D01*
X145759544Y-85008784D01*
X145691624Y-84844812D01*
X145661927Y-84695512D01*
X145657000Y-84670742D01*
X145657000Y-84493258D01*
X145662905Y-84463571D01*
X145691624Y-84319188D01*
X145759544Y-84155216D01*
X145858147Y-84007646D01*
X145983646Y-83882147D01*
X146131216Y-83783544D01*
X146295188Y-83715624D01*
X146444488Y-83685927D01*
X146469258Y-83681000D01*
X146646742Y-83681000D01*
X146671512Y-83685927D01*
G37*
G36*
X135640604Y-80866347D02*
G01*
X135677144Y-80877432D01*
X135710821Y-80895433D01*
X135740341Y-80919659D01*
X135764567Y-80949179D01*
X135782568Y-80982856D01*
X135793653Y-81019396D01*
X135798000Y-81063538D01*
X135798000Y-82512462D01*
X135793653Y-82556604D01*
X135782568Y-82593144D01*
X135764567Y-82626821D01*
X135740341Y-82656341D01*
X135710821Y-82680567D01*
X135677144Y-82698568D01*
X135640604Y-82709653D01*
X135596462Y-82714000D01*
X134647538Y-82714000D01*
X134603396Y-82709653D01*
X134566856Y-82698568D01*
X134533179Y-82680567D01*
X134503659Y-82656341D01*
X134479433Y-82626821D01*
X134461432Y-82593144D01*
X134450347Y-82556604D01*
X134446000Y-82512462D01*
X134446000Y-81063538D01*
X134450347Y-81019396D01*
X134461432Y-80982856D01*
X134479433Y-80949179D01*
X134503659Y-80919659D01*
X134533179Y-80895433D01*
X134566856Y-80877432D01*
X134603396Y-80866347D01*
X134647538Y-80862000D01*
X135596462Y-80862000D01*
X135640604Y-80866347D01*
G37*
G36*
X138440604Y-80866347D02*
G01*
X138477144Y-80877432D01*
X138510821Y-80895433D01*
X138540341Y-80919659D01*
X138564567Y-80949179D01*
X138582568Y-80982856D01*
X138593653Y-81019396D01*
X138598000Y-81063538D01*
X138598000Y-82512462D01*
X138593653Y-82556604D01*
X138582568Y-82593144D01*
X138564567Y-82626821D01*
X138540341Y-82656341D01*
X138510821Y-82680567D01*
X138477144Y-82698568D01*
X138440604Y-82709653D01*
X138396462Y-82714000D01*
X137447538Y-82714000D01*
X137403396Y-82709653D01*
X137366856Y-82698568D01*
X137333179Y-82680567D01*
X137303659Y-82656341D01*
X137279433Y-82626821D01*
X137261432Y-82593144D01*
X137250347Y-82556604D01*
X137246000Y-82512462D01*
X137246000Y-81063538D01*
X137250347Y-81019396D01*
X137261432Y-80982856D01*
X137279433Y-80949179D01*
X137303659Y-80919659D01*
X137333179Y-80895433D01*
X137366856Y-80877432D01*
X137403396Y-80866347D01*
X137447538Y-80862000D01*
X138396462Y-80862000D01*
X138440604Y-80866347D01*
G37*
G36*
X130380000Y-82453000D02*
G01*
X124128000Y-82453000D01*
X124128000Y-80751000D01*
X130380000Y-80751000D01*
X130380000Y-82453000D01*
G37*
G36*
X143520604Y-79654347D02*
G01*
X143557144Y-79665432D01*
X143590821Y-79683433D01*
X143620341Y-79707659D01*
X143644567Y-79737179D01*
X143662568Y-79770856D01*
X143673653Y-79807396D01*
X143678000Y-79851538D01*
X143678000Y-82200462D01*
X143673653Y-82244604D01*
X143662568Y-82281144D01*
X143644567Y-82314821D01*
X143620341Y-82344341D01*
X143590821Y-82368567D01*
X143557144Y-82386568D01*
X143520604Y-82397653D01*
X143476462Y-82402000D01*
X142527538Y-82402000D01*
X142483396Y-82397653D01*
X142446856Y-82386568D01*
X142413179Y-82368567D01*
X142383659Y-82344341D01*
X142359433Y-82314821D01*
X142341432Y-82281144D01*
X142330347Y-82244604D01*
X142326000Y-82200462D01*
X142326000Y-79851538D01*
X142330347Y-79807396D01*
X142341432Y-79770856D01*
X142359433Y-79737179D01*
X142383659Y-79707659D01*
X142413179Y-79683433D01*
X142446856Y-79665432D01*
X142483396Y-79654347D01*
X142527538Y-79650000D01*
X143476462Y-79650000D01*
X143520604Y-79654347D01*
G37*
G36*
X140720604Y-79654347D02*
G01*
X140757144Y-79665432D01*
X140790821Y-79683433D01*
X140820341Y-79707659D01*
X140844567Y-79737179D01*
X140862568Y-79770856D01*
X140873653Y-79807396D01*
X140878000Y-79851538D01*
X140878000Y-82200462D01*
X140873653Y-82244604D01*
X140862568Y-82281144D01*
X140844567Y-82314821D01*
X140820341Y-82344341D01*
X140790821Y-82368567D01*
X140757144Y-82386568D01*
X140720604Y-82397653D01*
X140676462Y-82402000D01*
X139727538Y-82402000D01*
X139683396Y-82397653D01*
X139646856Y-82386568D01*
X139613179Y-82368567D01*
X139583659Y-82344341D01*
X139559433Y-82314821D01*
X139541432Y-82281144D01*
X139530347Y-82244604D01*
X139526000Y-82200462D01*
X139526000Y-79851538D01*
X139530347Y-79807396D01*
X139541432Y-79770856D01*
X139559433Y-79737179D01*
X139583659Y-79707659D01*
X139613179Y-79683433D01*
X139646856Y-79665432D01*
X139683396Y-79654347D01*
X139727538Y-79650000D01*
X140676462Y-79650000D01*
X140720604Y-79654347D01*
G37*
G36*
X118504604Y-80358347D02*
G01*
X118541144Y-80369432D01*
X118574821Y-80387433D01*
X118604341Y-80411659D01*
X118628567Y-80441179D01*
X118646568Y-80474856D01*
X118657653Y-80511396D01*
X118662000Y-80555538D01*
X118662000Y-82004462D01*
X118657653Y-82048604D01*
X118646568Y-82085144D01*
X118628567Y-82118821D01*
X118604341Y-82148341D01*
X118574821Y-82172567D01*
X118541144Y-82190568D01*
X118504604Y-82201653D01*
X118460462Y-82206000D01*
X117511538Y-82206000D01*
X117467396Y-82201653D01*
X117430856Y-82190568D01*
X117397179Y-82172567D01*
X117367659Y-82148341D01*
X117343433Y-82118821D01*
X117325432Y-82085144D01*
X117314347Y-82048604D01*
X117310000Y-82004462D01*
X117310000Y-80555538D01*
X117314347Y-80511396D01*
X117325432Y-80474856D01*
X117343433Y-80441179D01*
X117367659Y-80411659D01*
X117397179Y-80387433D01*
X117430856Y-80369432D01*
X117467396Y-80358347D01*
X117511538Y-80354000D01*
X118460462Y-80354000D01*
X118504604Y-80358347D01*
G37*
G36*
X115704604Y-80358347D02*
G01*
X115741144Y-80369432D01*
X115774821Y-80387433D01*
X115804341Y-80411659D01*
X115828567Y-80441179D01*
X115846568Y-80474856D01*
X115857653Y-80511396D01*
X115862000Y-80555538D01*
X115862000Y-82004462D01*
X115857653Y-82048604D01*
X115846568Y-82085144D01*
X115828567Y-82118821D01*
X115804341Y-82148341D01*
X115774821Y-82172567D01*
X115741144Y-82190568D01*
X115704604Y-82201653D01*
X115660462Y-82206000D01*
X114711538Y-82206000D01*
X114667396Y-82201653D01*
X114630856Y-82190568D01*
X114597179Y-82172567D01*
X114567659Y-82148341D01*
X114543433Y-82118821D01*
X114525432Y-82085144D01*
X114514347Y-82048604D01*
X114510000Y-82004462D01*
X114510000Y-80555538D01*
X114514347Y-80511396D01*
X114525432Y-80474856D01*
X114543433Y-80441179D01*
X114567659Y-80411659D01*
X114597179Y-80387433D01*
X114630856Y-80369432D01*
X114667396Y-80358347D01*
X114711538Y-80354000D01*
X115660462Y-80354000D01*
X115704604Y-80358347D01*
G37*
G36*
X121064721Y-78972174D02*
G01*
X121164995Y-79013709D01*
X121164996Y-79013710D01*
X121255242Y-79074010D01*
X121331990Y-79150758D01*
X121331991Y-79150760D01*
X121392291Y-79241005D01*
X121433826Y-79341279D01*
X121455000Y-79447730D01*
X121455000Y-79556270D01*
X121433826Y-79662721D01*
X121392291Y-79762995D01*
X121392290Y-79762996D01*
X121331990Y-79853242D01*
X121255242Y-79929990D01*
X121209812Y-79960345D01*
X121164995Y-79990291D01*
X121064721Y-80031826D01*
X120958270Y-80053000D01*
X120849730Y-80053000D01*
X120743279Y-80031826D01*
X120643005Y-79990291D01*
X120598188Y-79960345D01*
X120552758Y-79929990D01*
X120476010Y-79853242D01*
X120415710Y-79762996D01*
X120415709Y-79762995D01*
X120374174Y-79662721D01*
X120353000Y-79556270D01*
X120353000Y-79447730D01*
X120374174Y-79341279D01*
X120415709Y-79241005D01*
X120476009Y-79150760D01*
X120476010Y-79150758D01*
X120552758Y-79074010D01*
X120643004Y-79013710D01*
X120643005Y-79013709D01*
X120743279Y-78972174D01*
X120849730Y-78951000D01*
X120958270Y-78951000D01*
X121064721Y-78972174D01*
G37*
G36*
X123604721Y-78972174D02*
G01*
X123704995Y-79013709D01*
X123704996Y-79013710D01*
X123795242Y-79074010D01*
X123871990Y-79150758D01*
X123871991Y-79150760D01*
X123932291Y-79241005D01*
X123973826Y-79341279D01*
X123995000Y-79447730D01*
X123995000Y-79556270D01*
X123973826Y-79662721D01*
X123932291Y-79762995D01*
X123932290Y-79762996D01*
X123871990Y-79853242D01*
X123795242Y-79929990D01*
X123749812Y-79960345D01*
X123704995Y-79990291D01*
X123604721Y-80031826D01*
X123498270Y-80053000D01*
X123389730Y-80053000D01*
X123283279Y-80031826D01*
X123183005Y-79990291D01*
X123138188Y-79960345D01*
X123092758Y-79929990D01*
X123016010Y-79853242D01*
X122955710Y-79762996D01*
X122955709Y-79762995D01*
X122914174Y-79662721D01*
X122893000Y-79556270D01*
X122893000Y-79447730D01*
X122914174Y-79341279D01*
X122955709Y-79241005D01*
X123016009Y-79150760D01*
X123016010Y-79150758D01*
X123092758Y-79074010D01*
X123183004Y-79013710D01*
X123183005Y-79013709D01*
X123283279Y-78972174D01*
X123389730Y-78951000D01*
X123498270Y-78951000D01*
X123604721Y-78972174D01*
G37*
G36*
X146671512Y-77081927D02*
G01*
X146820812Y-77111624D01*
X146984784Y-77179544D01*
X147132354Y-77278147D01*
X147257853Y-77403646D01*
X147356456Y-77551216D01*
X147424376Y-77715188D01*
X147459000Y-77889259D01*
X147459000Y-78066741D01*
X147424376Y-78240812D01*
X147356456Y-78404784D01*
X147257853Y-78552354D01*
X147132354Y-78677853D01*
X146984784Y-78776456D01*
X146820812Y-78844376D01*
X146671512Y-78874073D01*
X146646742Y-78879000D01*
X146469258Y-78879000D01*
X146444488Y-78874073D01*
X146295188Y-78844376D01*
X146131216Y-78776456D01*
X145983646Y-78677853D01*
X145858147Y-78552354D01*
X145759544Y-78404784D01*
X145691624Y-78240812D01*
X145657000Y-78066741D01*
X145657000Y-77889259D01*
X145691624Y-77715188D01*
X145759544Y-77551216D01*
X145858147Y-77403646D01*
X145983646Y-77278147D01*
X146131216Y-77179544D01*
X146295188Y-77111624D01*
X146444488Y-77081927D01*
X146469258Y-77077000D01*
X146646742Y-77077000D01*
X146671512Y-77081927D01*
G37*
G36*
X133457928Y-78010764D02*
G01*
X133479009Y-78017160D01*
X133498445Y-78027548D01*
X133515476Y-78041524D01*
X133529452Y-78058555D01*
X133539840Y-78077991D01*
X133546236Y-78099072D01*
X133549000Y-78127140D01*
X133549000Y-78590860D01*
X133546236Y-78618928D01*
X133539840Y-78640009D01*
X133529452Y-78659445D01*
X133515476Y-78676476D01*
X133498445Y-78690452D01*
X133479009Y-78700840D01*
X133457928Y-78707236D01*
X133429860Y-78710000D01*
X131616140Y-78710000D01*
X131588072Y-78707236D01*
X131566991Y-78700840D01*
X131547555Y-78690452D01*
X131530524Y-78676476D01*
X131516548Y-78659445D01*
X131506160Y-78640009D01*
X131499764Y-78618928D01*
X131497000Y-78590860D01*
X131497000Y-78127140D01*
X131499764Y-78099072D01*
X131506160Y-78077991D01*
X131516548Y-78058555D01*
X131530524Y-78041524D01*
X131547555Y-78027548D01*
X131566991Y-78017160D01*
X131588072Y-78010764D01*
X131616140Y-78008000D01*
X133429860Y-78008000D01*
X133457928Y-78010764D01*
G37*
G36*
X128507928Y-78010764D02*
G01*
X128529009Y-78017160D01*
X128548445Y-78027548D01*
X128565476Y-78041524D01*
X128579452Y-78058555D01*
X128589840Y-78077991D01*
X128596236Y-78099072D01*
X128599000Y-78127140D01*
X128599000Y-78590860D01*
X128596236Y-78618928D01*
X128589840Y-78640009D01*
X128579452Y-78659445D01*
X128565476Y-78676476D01*
X128548445Y-78690452D01*
X128529009Y-78700840D01*
X128507928Y-78707236D01*
X128479860Y-78710000D01*
X126666140Y-78710000D01*
X126638072Y-78707236D01*
X126616991Y-78700840D01*
X126597555Y-78690452D01*
X126580524Y-78676476D01*
X126566548Y-78659445D01*
X126556160Y-78640009D01*
X126549764Y-78618928D01*
X126547000Y-78590860D01*
X126547000Y-78127140D01*
X126549764Y-78099072D01*
X126556160Y-78077991D01*
X126566548Y-78058555D01*
X126580524Y-78041524D01*
X126597555Y-78027548D01*
X126616991Y-78017160D01*
X126638072Y-78010764D01*
X126666140Y-78008000D01*
X128479860Y-78008000D01*
X128507928Y-78010764D01*
G37*
G36*
X118593000Y-78389000D02*
G01*
X116941000Y-78389000D01*
X116941000Y-76987000D01*
X118593000Y-76987000D01*
X118593000Y-78389000D01*
G37*
G36*
X110643000Y-78389000D02*
G01*
X108991000Y-78389000D01*
X108991000Y-76987000D01*
X110643000Y-76987000D01*
X110643000Y-78389000D01*
G37*
G36*
X133457928Y-76740764D02*
G01*
X133479009Y-76747160D01*
X133498445Y-76757548D01*
X133515476Y-76771524D01*
X133529452Y-76788555D01*
X133539840Y-76807991D01*
X133546236Y-76829072D01*
X133549000Y-76857140D01*
X133549000Y-77320860D01*
X133546236Y-77348928D01*
X133539840Y-77370009D01*
X133529452Y-77389445D01*
X133515476Y-77406476D01*
X133498445Y-77420452D01*
X133479009Y-77430840D01*
X133457928Y-77437236D01*
X133429860Y-77440000D01*
X131616140Y-77440000D01*
X131588072Y-77437236D01*
X131566991Y-77430840D01*
X131547555Y-77420452D01*
X131530524Y-77406476D01*
X131516548Y-77389445D01*
X131506160Y-77370009D01*
X131499764Y-77348928D01*
X131497000Y-77320860D01*
X131497000Y-76857140D01*
X131499764Y-76829072D01*
X131506160Y-76807991D01*
X131516548Y-76788555D01*
X131530524Y-76771524D01*
X131547555Y-76757548D01*
X131566991Y-76747160D01*
X131588072Y-76740764D01*
X131616140Y-76738000D01*
X133429860Y-76738000D01*
X133457928Y-76740764D01*
G37*
G36*
X128507928Y-76740764D02*
G01*
X128529009Y-76747160D01*
X128548445Y-76757548D01*
X128565476Y-76771524D01*
X128579452Y-76788555D01*
X128589840Y-76807991D01*
X128596236Y-76829072D01*
X128599000Y-76857140D01*
X128599000Y-77320860D01*
X128596236Y-77348928D01*
X128589840Y-77370009D01*
X128579452Y-77389445D01*
X128565476Y-77406476D01*
X128548445Y-77420452D01*
X128529009Y-77430840D01*
X128507928Y-77437236D01*
X128479860Y-77440000D01*
X126666140Y-77440000D01*
X126638072Y-77437236D01*
X126616991Y-77430840D01*
X126597555Y-77420452D01*
X126580524Y-77406476D01*
X126566548Y-77389445D01*
X126556160Y-77370009D01*
X126549764Y-77348928D01*
X126547000Y-77320860D01*
X126547000Y-76857140D01*
X126549764Y-76829072D01*
X126556160Y-76807991D01*
X126566548Y-76788555D01*
X126580524Y-76771524D01*
X126597555Y-76757548D01*
X126616991Y-76747160D01*
X126638072Y-76740764D01*
X126666140Y-76738000D01*
X128479860Y-76738000D01*
X128507928Y-76740764D01*
G37*
G36*
X136912604Y-75026347D02*
G01*
X136949144Y-75037432D01*
X136982821Y-75055433D01*
X137012341Y-75079659D01*
X137036567Y-75109179D01*
X137054568Y-75142856D01*
X137065653Y-75179396D01*
X137070000Y-75223538D01*
X137070000Y-76172462D01*
X137065653Y-76216604D01*
X137054568Y-76253144D01*
X137036567Y-76286821D01*
X137012341Y-76316341D01*
X136982821Y-76340567D01*
X136949144Y-76358568D01*
X136912604Y-76369653D01*
X136868462Y-76374000D01*
X135419538Y-76374000D01*
X135375396Y-76369653D01*
X135338856Y-76358568D01*
X135305179Y-76340567D01*
X135275659Y-76316341D01*
X135251433Y-76286821D01*
X135233432Y-76253144D01*
X135222347Y-76216604D01*
X135218000Y-76172462D01*
X135218000Y-75223538D01*
X135222347Y-75179396D01*
X135233432Y-75142856D01*
X135251433Y-75109179D01*
X135275659Y-75079659D01*
X135305179Y-75055433D01*
X135338856Y-75037432D01*
X135375396Y-75026347D01*
X135419538Y-75022000D01*
X136868462Y-75022000D01*
X136912604Y-75026347D01*
G37*
G36*
X140214604Y-75020347D02*
G01*
X140251144Y-75031432D01*
X140284821Y-75049433D01*
X140314341Y-75073659D01*
X140338567Y-75103179D01*
X140356568Y-75136856D01*
X140367653Y-75173396D01*
X140372000Y-75217538D01*
X140372000Y-76166462D01*
X140367653Y-76210604D01*
X140356568Y-76247144D01*
X140338567Y-76280821D01*
X140314341Y-76310341D01*
X140284821Y-76334567D01*
X140251144Y-76352568D01*
X140214604Y-76363653D01*
X140170462Y-76368000D01*
X138721538Y-76368000D01*
X138677396Y-76363653D01*
X138640856Y-76352568D01*
X138607179Y-76334567D01*
X138577659Y-76310341D01*
X138553433Y-76280821D01*
X138535432Y-76247144D01*
X138524347Y-76210604D01*
X138520000Y-76166462D01*
X138520000Y-75217538D01*
X138524347Y-75173396D01*
X138535432Y-75136856D01*
X138553433Y-75103179D01*
X138577659Y-75073659D01*
X138607179Y-75049433D01*
X138640856Y-75031432D01*
X138677396Y-75020347D01*
X138721538Y-75016000D01*
X140170462Y-75016000D01*
X140214604Y-75020347D01*
G37*
G36*
X143516604Y-75020347D02*
G01*
X143553144Y-75031432D01*
X143586821Y-75049433D01*
X143616341Y-75073659D01*
X143640567Y-75103179D01*
X143658568Y-75136856D01*
X143669653Y-75173396D01*
X143674000Y-75217538D01*
X143674000Y-76166462D01*
X143669653Y-76210604D01*
X143658568Y-76247144D01*
X143640567Y-76280821D01*
X143616341Y-76310341D01*
X143586821Y-76334567D01*
X143553144Y-76352568D01*
X143516604Y-76363653D01*
X143472462Y-76368000D01*
X142023538Y-76368000D01*
X141979396Y-76363653D01*
X141942856Y-76352568D01*
X141909179Y-76334567D01*
X141879659Y-76310341D01*
X141855433Y-76280821D01*
X141837432Y-76247144D01*
X141826347Y-76210604D01*
X141822000Y-76166462D01*
X141822000Y-75217538D01*
X141826347Y-75173396D01*
X141837432Y-75136856D01*
X141855433Y-75103179D01*
X141879659Y-75073659D01*
X141909179Y-75049433D01*
X141942856Y-75031432D01*
X141979396Y-75020347D01*
X142023538Y-75016000D01*
X143472462Y-75016000D01*
X143516604Y-75020347D01*
G37*
G36*
X146671512Y-74541927D02*
G01*
X146820812Y-74571624D01*
X146984784Y-74639544D01*
X147132354Y-74738147D01*
X147257853Y-74863646D01*
X147356456Y-75011216D01*
X147424376Y-75175188D01*
X147459000Y-75349259D01*
X147459000Y-75526741D01*
X147424376Y-75700812D01*
X147356456Y-75864784D01*
X147257853Y-76012354D01*
X147132354Y-76137853D01*
X146984784Y-76236456D01*
X146820812Y-76304376D01*
X146671512Y-76334073D01*
X146646742Y-76339000D01*
X146469258Y-76339000D01*
X146444488Y-76334073D01*
X146295188Y-76304376D01*
X146131216Y-76236456D01*
X145983646Y-76137853D01*
X145858147Y-76012354D01*
X145759544Y-75864784D01*
X145691624Y-75700812D01*
X145657000Y-75526741D01*
X145657000Y-75349259D01*
X145691624Y-75175188D01*
X145759544Y-75011216D01*
X145858147Y-74863646D01*
X145983646Y-74738147D01*
X146131216Y-74639544D01*
X146295188Y-74571624D01*
X146444488Y-74541927D01*
X146469258Y-74537000D01*
X146646742Y-74537000D01*
X146671512Y-74541927D01*
G37*
G36*
X128507928Y-75470764D02*
G01*
X128529009Y-75477160D01*
X128548445Y-75487548D01*
X128565476Y-75501524D01*
X128579452Y-75518555D01*
X128589840Y-75537991D01*
X128596236Y-75559072D01*
X128599000Y-75587140D01*
X128599000Y-76050860D01*
X128596236Y-76078928D01*
X128589840Y-76100009D01*
X128579452Y-76119445D01*
X128565476Y-76136476D01*
X128548445Y-76150452D01*
X128529009Y-76160840D01*
X128507928Y-76167236D01*
X128479860Y-76170000D01*
X126666140Y-76170000D01*
X126638072Y-76167236D01*
X126616991Y-76160840D01*
X126597555Y-76150452D01*
X126580524Y-76136476D01*
X126566548Y-76119445D01*
X126556160Y-76100009D01*
X126549764Y-76078928D01*
X126547000Y-76050860D01*
X126547000Y-75587140D01*
X126549764Y-75559072D01*
X126556160Y-75537991D01*
X126566548Y-75518555D01*
X126580524Y-75501524D01*
X126597555Y-75487548D01*
X126616991Y-75477160D01*
X126638072Y-75470764D01*
X126666140Y-75468000D01*
X128479860Y-75468000D01*
X128507928Y-75470764D01*
G37*
G36*
X133457928Y-75470764D02*
G01*
X133479009Y-75477160D01*
X133498445Y-75487548D01*
X133515476Y-75501524D01*
X133529452Y-75518555D01*
X133539840Y-75537991D01*
X133546236Y-75559072D01*
X133549000Y-75587140D01*
X133549000Y-76050860D01*
X133546236Y-76078928D01*
X133539840Y-76100009D01*
X133529452Y-76119445D01*
X133515476Y-76136476D01*
X133498445Y-76150452D01*
X133479009Y-76160840D01*
X133457928Y-76167236D01*
X133429860Y-76170000D01*
X131616140Y-76170000D01*
X131588072Y-76167236D01*
X131566991Y-76160840D01*
X131547555Y-76150452D01*
X131530524Y-76136476D01*
X131516548Y-76119445D01*
X131506160Y-76100009D01*
X131499764Y-76078928D01*
X131497000Y-76050860D01*
X131497000Y-75587140D01*
X131499764Y-75559072D01*
X131506160Y-75537991D01*
X131516548Y-75518555D01*
X131530524Y-75501524D01*
X131547555Y-75487548D01*
X131566991Y-75477160D01*
X131588072Y-75470764D01*
X131616140Y-75468000D01*
X133429860Y-75468000D01*
X133457928Y-75470764D01*
G37*
G36*
X123825000Y-69976001D02*
G01*
X123827402Y-70000387D01*
X123834515Y-70023836D01*
X123846066Y-70045447D01*
X123861611Y-70064389D01*
X123880553Y-70079934D01*
X123902164Y-70091485D01*
X123925613Y-70098598D01*
X123949999Y-70101000D01*
X124825000Y-70101000D01*
X124825000Y-71403000D01*
X123949999Y-71403000D01*
X123925613Y-71405402D01*
X123902164Y-71412515D01*
X123880553Y-71424066D01*
X123861611Y-71439611D01*
X123846066Y-71458553D01*
X123834515Y-71480164D01*
X123827402Y-71503613D01*
X123825000Y-71527999D01*
X123825000Y-76053000D01*
X120523000Y-76053000D01*
X120523000Y-71527999D01*
X120520598Y-71503613D01*
X120513485Y-71480164D01*
X120501934Y-71458553D01*
X120486389Y-71439611D01*
X120467447Y-71424066D01*
X120445836Y-71412515D01*
X120422387Y-71405402D01*
X120398001Y-71403000D01*
X119523000Y-71403000D01*
X119523000Y-70101000D01*
X120398001Y-70101000D01*
X120422387Y-70098598D01*
X120445836Y-70091485D01*
X120467447Y-70079934D01*
X120486389Y-70064389D01*
X120501934Y-70045447D01*
X120513485Y-70023836D01*
X120520598Y-70000387D01*
X120523000Y-69976001D01*
X120523000Y-65451000D01*
X123825000Y-65451000D01*
X123825000Y-69976001D01*
G37*
G36*
X128507928Y-74200764D02*
G01*
X128529009Y-74207160D01*
X128548445Y-74217548D01*
X128565476Y-74231524D01*
X128579452Y-74248555D01*
X128589840Y-74267991D01*
X128596236Y-74289072D01*
X128599000Y-74317140D01*
X128599000Y-74780860D01*
X128596236Y-74808928D01*
X128589840Y-74830009D01*
X128579452Y-74849445D01*
X128565476Y-74866476D01*
X128548445Y-74880452D01*
X128529009Y-74890840D01*
X128507928Y-74897236D01*
X128479860Y-74900000D01*
X126666140Y-74900000D01*
X126638072Y-74897236D01*
X126616991Y-74890840D01*
X126597555Y-74880452D01*
X126580524Y-74866476D01*
X126566548Y-74849445D01*
X126556160Y-74830009D01*
X126549764Y-74808928D01*
X126547000Y-74780860D01*
X126547000Y-74317140D01*
X126549764Y-74289072D01*
X126556160Y-74267991D01*
X126566548Y-74248555D01*
X126580524Y-74231524D01*
X126597555Y-74217548D01*
X126616991Y-74207160D01*
X126638072Y-74200764D01*
X126666140Y-74198000D01*
X128479860Y-74198000D01*
X128507928Y-74200764D01*
G37*
G36*
X133457928Y-74200764D02*
G01*
X133479009Y-74207160D01*
X133498445Y-74217548D01*
X133515476Y-74231524D01*
X133529452Y-74248555D01*
X133539840Y-74267991D01*
X133546236Y-74289072D01*
X133549000Y-74317140D01*
X133549000Y-74780860D01*
X133546236Y-74808928D01*
X133539840Y-74830009D01*
X133529452Y-74849445D01*
X133515476Y-74866476D01*
X133498445Y-74880452D01*
X133479009Y-74890840D01*
X133457928Y-74897236D01*
X133429860Y-74900000D01*
X131616140Y-74900000D01*
X131588072Y-74897236D01*
X131566991Y-74890840D01*
X131547555Y-74880452D01*
X131530524Y-74866476D01*
X131516548Y-74849445D01*
X131506160Y-74830009D01*
X131499764Y-74808928D01*
X131497000Y-74780860D01*
X131497000Y-74317140D01*
X131499764Y-74289072D01*
X131506160Y-74267991D01*
X131516548Y-74248555D01*
X131530524Y-74231524D01*
X131547555Y-74217548D01*
X131566991Y-74207160D01*
X131588072Y-74200764D01*
X131616140Y-74198000D01*
X133429860Y-74198000D01*
X133457928Y-74200764D01*
G37*
G36*
X118593000Y-73889000D02*
G01*
X116941000Y-73889000D01*
X116941000Y-72487000D01*
X118593000Y-72487000D01*
X118593000Y-73889000D01*
G37*
G36*
X110643000Y-73889000D02*
G01*
X108991000Y-73889000D01*
X108991000Y-72487000D01*
X110643000Y-72487000D01*
X110643000Y-73889000D01*
G37*
G36*
X146671512Y-72001927D02*
G01*
X146820812Y-72031624D01*
X146984784Y-72099544D01*
X147132354Y-72198147D01*
X147257853Y-72323646D01*
X147356456Y-72471216D01*
X147424376Y-72635188D01*
X147459000Y-72809259D01*
X147459000Y-72986741D01*
X147424376Y-73160812D01*
X147356456Y-73324784D01*
X147257853Y-73472354D01*
X147132354Y-73597853D01*
X146984784Y-73696456D01*
X146820812Y-73764376D01*
X146671512Y-73794073D01*
X146646742Y-73799000D01*
X146469258Y-73799000D01*
X146444488Y-73794073D01*
X146295188Y-73764376D01*
X146131216Y-73696456D01*
X145983646Y-73597853D01*
X145858147Y-73472354D01*
X145759544Y-73324784D01*
X145691624Y-73160812D01*
X145657000Y-72986741D01*
X145657000Y-72809259D01*
X145691624Y-72635188D01*
X145759544Y-72471216D01*
X145858147Y-72323646D01*
X145983646Y-72198147D01*
X146131216Y-72099544D01*
X146295188Y-72031624D01*
X146444488Y-72001927D01*
X146469258Y-71997000D01*
X146646742Y-71997000D01*
X146671512Y-72001927D01*
G37*
G36*
X136912604Y-72226347D02*
G01*
X136949144Y-72237432D01*
X136982821Y-72255433D01*
X137012341Y-72279659D01*
X137036567Y-72309179D01*
X137054568Y-72342856D01*
X137065653Y-72379396D01*
X137070000Y-72423538D01*
X137070000Y-73372462D01*
X137065653Y-73416604D01*
X137054568Y-73453144D01*
X137036567Y-73486821D01*
X137012341Y-73516341D01*
X136982821Y-73540567D01*
X136949144Y-73558568D01*
X136912604Y-73569653D01*
X136868462Y-73574000D01*
X135419538Y-73574000D01*
X135375396Y-73569653D01*
X135338856Y-73558568D01*
X135305179Y-73540567D01*
X135275659Y-73516341D01*
X135251433Y-73486821D01*
X135233432Y-73453144D01*
X135222347Y-73416604D01*
X135218000Y-73372462D01*
X135218000Y-72423538D01*
X135222347Y-72379396D01*
X135233432Y-72342856D01*
X135251433Y-72309179D01*
X135275659Y-72279659D01*
X135305179Y-72255433D01*
X135338856Y-72237432D01*
X135375396Y-72226347D01*
X135419538Y-72222000D01*
X136868462Y-72222000D01*
X136912604Y-72226347D01*
G37*
G36*
X143516604Y-72220347D02*
G01*
X143553144Y-72231432D01*
X143586821Y-72249433D01*
X143616341Y-72273659D01*
X143640567Y-72303179D01*
X143658568Y-72336856D01*
X143669653Y-72373396D01*
X143674000Y-72417538D01*
X143674000Y-73366462D01*
X143669653Y-73410604D01*
X143658568Y-73447144D01*
X143640567Y-73480821D01*
X143616341Y-73510341D01*
X143586821Y-73534567D01*
X143553144Y-73552568D01*
X143516604Y-73563653D01*
X143472462Y-73568000D01*
X142023538Y-73568000D01*
X141979396Y-73563653D01*
X141942856Y-73552568D01*
X141909179Y-73534567D01*
X141879659Y-73510341D01*
X141855433Y-73480821D01*
X141837432Y-73447144D01*
X141826347Y-73410604D01*
X141822000Y-73366462D01*
X141822000Y-72417538D01*
X141826347Y-72373396D01*
X141837432Y-72336856D01*
X141855433Y-72303179D01*
X141879659Y-72273659D01*
X141909179Y-72249433D01*
X141942856Y-72231432D01*
X141979396Y-72220347D01*
X142023538Y-72216000D01*
X143472462Y-72216000D01*
X143516604Y-72220347D01*
G37*
G36*
X140214604Y-72220347D02*
G01*
X140251144Y-72231432D01*
X140284821Y-72249433D01*
X140314341Y-72273659D01*
X140338567Y-72303179D01*
X140356568Y-72336856D01*
X140367653Y-72373396D01*
X140372000Y-72417538D01*
X140372000Y-73366462D01*
X140367653Y-73410604D01*
X140356568Y-73447144D01*
X140338567Y-73480821D01*
X140314341Y-73510341D01*
X140284821Y-73534567D01*
X140251144Y-73552568D01*
X140214604Y-73563653D01*
X140170462Y-73568000D01*
X138721538Y-73568000D01*
X138677396Y-73563653D01*
X138640856Y-73552568D01*
X138607179Y-73534567D01*
X138577659Y-73510341D01*
X138553433Y-73480821D01*
X138535432Y-73447144D01*
X138524347Y-73410604D01*
X138520000Y-73366462D01*
X138520000Y-72417538D01*
X138524347Y-72373396D01*
X138535432Y-72336856D01*
X138553433Y-72303179D01*
X138577659Y-72273659D01*
X138607179Y-72249433D01*
X138640856Y-72231432D01*
X138677396Y-72220347D01*
X138721538Y-72216000D01*
X140170462Y-72216000D01*
X140214604Y-72220347D01*
G37*
G36*
X147459000Y-71259000D02*
G01*
X145657000Y-71259000D01*
X145657000Y-69457000D01*
X147459000Y-69457000D01*
X147459000Y-71259000D01*
G37*
M02*
